<svg xmlns="http://www.w3.org/2000/svg" xmlns:xlink="http://www.w3.org/1999/xlink" fill="none" version="1.1" width="172" height="172" viewBox="0 0 172 172"><defs><clipPath id="master_svg0_15_2336"><rect x="0" y="0" width="172" height="172" rx="0"/></clipPath><linearGradient x1="0.5" y1="0" x2="0.5" y2="1" id="master_svg1_9_00027"><stop offset="0%" stop-color="#B8B8B8" stop-opacity="1"/><stop offset="100%" stop-color="#D0D0D0" stop-opacity="1"/></linearGradient></defs><g clip-path="url(#master_svg0_15_2336)"><g style="opacity:0.10999999940395355;"><path d="M15.347140625,145.5817875C29.477640625,148.1417875,23.387040625,149.5976875,18.256440625,151.0296875C8.837930625,153.6603875,12.400540625,156.0242875,16.529840625,158.2029875C22.640340625,161.4268875,71.297040625,169.3840875,126.859140625,163.1415875C178.670140625,157.3242875,173.103140625,146.3377875,161.018140625,141.3005875C151.285140625,137.2525975,107.282140625,127.9567375,54.646540625,129.6287175C22.973740625,130.6286975,8.913940625,133.4899875,5.865980625000001,135.7352875C0.826060625,139.4525875,-0.384589375,142.7298875,15.347140625,145.5817875Z" fill="#1677FF" fill-opacity="1" style="mix-blend-mode:passthrough"/></g><g><path d="M33.337890625,76.6041643359375L92.643690625,69.1429443359375L92.643690625,98.7318443359375L34.284545625,105.5477443359375L33.337890625,76.6041643359375Z" fill="#B3D4FF" fill-opacity="1" style="mix-blend-mode:passthrough"/></g><g><path d="M139.67878125,78.7987943359375L92.71158125,69.1429443359375L92.70488125,102.4104443359375L139.67978125000002,112.0076443359375L139.67978125000002,78.7974643359375L139.67878125,78.7987943359375ZM84.42368125,91.5572443359375L33.92578125,78.5374743359375L33.92578125,140.09124433593752L84.42368125,153.1110443359375L84.42368125,91.5572443359375Z" fill="#4391FF" fill-opacity="1" style="mix-blend-mode:passthrough"/></g><g><path d="M139.091684375,80.298828125L83.896484375,91.30802812499999L84.216478375,153.11102812500002L139.091684375,140.852628125L139.091684375,80.298828125Z" fill="#1677FF" fill-opacity="1" style="mix-blend-mode:passthrough"/></g><g><path d="M83.898275,91.55989296875L139.582875,79.71209296875L151.424875,101.53709296875L94.794075,114.94359296875001L83.898275,91.55989296875ZM83.83827500000001,91.29059296875L33.288375,77.36279296875L20.421875,99.03709296875L68.837175,114.94359296875001L83.83687499999999,91.29059296875L83.83827500000001,91.29059296875Z" fill="#C5DEFF" fill-opacity="1" style="mix-blend-mode:passthrough"/></g><g><path d="M101.719721875,34.098207843750004L101.33572187499999,34.62486484375L100.473121875,33.99820784375L100.857021875,33.47021484375L101.71842187499999,34.09820484375L101.719721875,34.098207843750004ZM99.727721875,36.81416484375L98.922421875,37.90615484375L98.063821875,37.27282484375L98.870421875,36.18084484375L99.727721875,36.81416484375ZM97.302421875,40.09145484375L96.482421875,41.19543484375L95.62652187500001,40.55811484375L96.446421875,39.45546484375L97.302421875,40.09145484375ZM94.871821875,43.35273484375L94.049121875,44.45141484375L93.19582187500001,43.81141484375L94.017121875,42.71407484375L94.87052187500001,43.35406484375L94.871821875,43.35273484375ZM92.419821875,46.62071484375L91.61452187500001,47.69131484375L90.762521875,47.05001484375L91.56782187499999,45.979314843750004L92.421221875,46.62071484375L92.419821875,46.62071484375ZM89.979921875,49.85801484375L89.153221875,50.95131484375L88.302621875,50.30731484375L89.129221875,49.21401484375L89.979921875,49.85801484375ZM87.50922187500001,53.11791484375L86.701321875,54.18061484375L85.851921875,53.53521484375L86.659921875,52.47261484375L87.50922187500001,53.11791484375ZM85.007921875,56.37791484375Q84.570621875,56.91521484375,84.114621875,57.425814843750004L83.318621875,56.716514843750005Q83.758621875,56.22321484375,84.181321875,55.703214843750004L85.007921875,56.37791484375ZM82.176021875,59.40051484375Q81.66932187500001,59.86851484375,81.146721875,60.30711484375L80.461321875,59.48981484375Q80.964021875,59.068514843749995,81.452021875,58.61651484375L82.176021875,59.40051484375ZM78.934721875,61.97381484375Q78.350721875,62.36581484375,77.756021875,62.72041484375L77.210721875,61.803114843749995Q77.780021875,61.46441484375,78.338721875,61.088514843750005L78.934721875,61.97381484375ZM75.293441875,63.98971484375Q74.637451875,64.27771484375,73.986791875,64.50971484375L73.626791875,63.50441484375Q74.244121875,63.28581484375,74.865441875,63.01241484375L75.293441875,63.98971484375ZM71.289501875,65.22971484375Q70.550841875,65.35511484375,69.865511875,65.38971484375L69.812181875,64.32311484375Q70.433511875,64.29241484375,71.109501875,64.17641484375L71.289501875,65.22971484375ZM66.969561875,64.99241484375Q66.150906875,64.66171484375,65.664249875,64.08971484375L66.477571875,63.39911484375Q66.793571875,63.77241484375,67.368231875,64.00441484375L66.968231875,64.99241484375L66.969561875,64.99241484375ZM65.294921875,61.00581484375Q65.521587875,60.37381484375,65.948247875,59.696514843749995L66.850901875,60.26311484375Q66.486911875,60.844514843750005,66.298911875,61.36581484375L65.294921875,61.00581484375ZM67.733551875,57.50321484375Q68.097541875,57.13391484375,68.508211875,56.75651484375Q68.641541875,56.63391484375,68.774871875,56.52051484375L69.466871875,57.332514843750005Q69.348201875,57.43381484375,69.229541875,57.54321484375Q68.838881875,57.90181484375,68.493551875,58.25121484375L67.733561875,57.50451484375L67.733551875,57.50321484375ZM71.380171875,55.14721484375Q72.176151875,54.993914843750005,72.948141875,55.17921484375L72.697481875,56.216514843750005Q72.150821875,56.085914843750004,71.581501875,56.19521484375L71.380171875,55.14721484375ZM75.452121875,56.79121484375Q75.904121875,57.28451484375,76.338721875,57.92181484375L75.458721875,58.52181484375Q75.066771875,57.948514843750004,74.665441875,57.51251484375L75.452121875,56.79251484375L75.452121875,56.79121484375ZM77.704121875,60.36851484375Q77.984021875,60.96851484375,78.256021875,61.63511484375L77.268121875,62.03781484375Q77.006721875,61.39511484375,76.737421875,60.81911484375L77.704121875,60.36851484375ZM79.193421875,64.21771484375Q79.39742187499999,64.84441484375,79.596021875,65.51641484375L78.574721875,65.82041484375Q78.378721875,65.16311484375001,78.17872187500001,64.54711484375L79.192021875,64.21771484375L79.193421875,64.21771484375ZM80.321321875,68.17241484375L80.641321875,69.48831484375L80.641321875,69.49501484375L79.602721875,69.73771484375L79.602721875,69.74031484375L79.28402187500001,68.42301484375L80.321321875,68.17241484375ZM81.224021875,72.17761484375L81.484021875,73.49761484375L80.437321875,73.70291484375L80.177421875,72.38301484375L81.224021875,72.17761484375ZM81.964021875,76.19621484375L82.184021875,77.56021484375L81.130721875,77.73091484375L80.91072187500001,76.36691484375001L81.964021875,76.19621484375ZM82.57462187499999,80.22951484375L82.75062187500001,81.56681484375L81.693321875,81.70681484375001L81.517321875,80.36951484375L82.57462187499999,80.22951484375ZM83.069321875,84.29881484375L83.136021875,84.95211484375L82.073321875,85.05881484375L82.008021875,84.40541484375001L83.069321875,84.29881484375Z" fill="#1677FF" fill-opacity="1" style="mix-blend-mode:passthrough"/></g><g><g><ellipse cx="103.74041748046875" cy="22" rx="5.74041748046875" ry="15" fill="#FFFFFF" fill-opacity="1" style="mix-blend-mode:passthrough"/><ellipse cx="103.74041748046875" cy="22" rx="5.74041748046875" ry="15" fill-opacity="0" stroke-opacity="1" stroke="#B8B8B8" fill="none" stroke-width="1"/></g><g><ellipse cx="105.88212251663208" cy="21.999998569488525" rx="5.0540452003479" ry="12.789487838745117" fill="#1677FF" fill-opacity="1" style="mix-blend-mode:passthrough"/><ellipse cx="105.88212251663208" cy="21.999998569488525" rx="5.0540452003479" ry="12.789487838745117" fill-opacity="0" stroke-opacity="1" stroke="#B8B8B8" fill="none" stroke-width="1"/></g><g><rect x="105.88270092010498" y="9.210524320602417" width="15.064915657043457" height="25.579021453857422" rx="0" fill="#1677FF" fill-opacity="1" style="mix-blend-mode:passthrough"/><path d="M105.88270092010498,8.710524320602417L105.88270092010498,9.710524320602417L120.44760092010497,9.710524320602417L120.44760092010497,34.28952432060242L105.88270092010498,34.28952432060242L105.88270092010498,35.28952432060242L121.44760092010497,35.28952432060242L121.44760092010497,8.710524320602417L105.88270092010498,8.710524320602417Z" fill-rule="evenodd" fill="#B8B8B8" fill-opacity="1"/></g><g><ellipse cx="118.32345688343048" cy="22.000022649765015" rx="1.4215136766433716" ry="3.6205642223358154" fill="#F1DD52" fill-opacity="1" style="mix-blend-mode:passthrough"/></g><g><rect x="117.34794425964355" y="7.007815350778401" width="0.7622339725494385" height="29.983598709106445" rx="0" fill="#FFFFFF" fill-opacity="1" style="mix-blend-mode:passthrough"/></g><g><ellipse cx="118.11065721511841" cy="22" rx="5.889343738555908" ry="15" fill="#FFFFFF" fill-opacity="1" style="mix-blend-mode:passthrough"/><ellipse cx="118.11065721511841" cy="22" rx="5.889343738555908" ry="15" fill-opacity="0" stroke-opacity="1" stroke="#B8B8B8" fill="none" stroke-width="1"/></g><g><ellipse cx="118.4892863035202" cy="21.999998331069946" rx="1.2512816190719604" ry="3.186973810195923" fill="url(#master_svg1_9_00027)" fill-opacity="1" style="mix-blend-mode:passthrough"/></g></g></g></svg>