<svg xmlns="http://www.w3.org/2000/svg" xmlns:xlink="http://www.w3.org/1999/xlink" fill="none" version="1.1" width="121"
    height="121" viewBox="0 0 121 121">
    <defs>
        <clipPath id="master_svg0_77_02191">
            <rect x="0" y="0" width="121" height="121" rx="0" />
        </clipPath>
    </defs>
    <g clip-path="url(#master_svg0_77_02191)">
        <g style="opacity:0.4000000059604645;">
            <path
                d="M121,103.125Q121,103.4963,120.927,103.8671Q120.854,104.238,120.709,104.6075Q120.563,104.977,120.345,105.3443Q120.127,105.7116,119.838,106.0757Q119.548,106.4399,119.187,106.8001Q118.826,107.1602,118.395,107.5156Q117.964,107.8709,117.463,108.2205Q116.963,108.5701,116.395,108.9131Q115.826,109.2561,115.191,109.5918Q114.556,109.9274,113.856,110.25489999999999Q113.156,110.5823,112.393,110.9008Q111.629,111.2193,110.804,111.52799999999999Q109.979,111.83670000000001,109.094,112.135Q108.209,112.4332,107.267,112.7202Q106.325,113.0072,105.328,113.28229999999999Q104.33,113.5574,103.28,113.82Q102.23,114.0825,101.129,114.3319Q100.029,114.5812,98.8808,114.8168Q97.7327,115.0523,96.5398,115.2735Q95.3469,115.4947,94.112,115.701Q92.8771,115.90729999999999,91.6032,116.0981Q90.3293,116.289,89.0195,116.4641Q87.7097,116.6391,86.3671,116.7978Q85.0245,116.95660000000001,83.6523,117.09870000000001Q82.2802,117.24080000000001,80.8818,117.3659Q79.4835,117.4909,78.0622,117.59870000000001Q76.641,117.7065,75.2003,117.7967Q73.7596,117.8869,72.303,117.9594Q70.8463,118.0318,69.3772,118.0863Q67.9081,118.1408,66.43,118.1772Q64.952,118.2136,63.4686,118.23179999999999Q61.9852,118.25,60.5,118.25Q59.0148,118.25,57.5314,118.23179999999999Q56.048,118.2136,54.57,118.1772Q53.0919,118.1408,51.6228,118.0863Q50.1537,118.0318,48.697,117.9594Q47.2404,117.8869,45.7997,117.7967Q44.359,117.7065,42.9378,117.59870000000001Q41.5165,117.4909,40.1182,117.3659Q38.7198,117.24080000000001,37.3476,117.09870000000001Q35.9755,116.95660000000001,34.6329,116.7978Q33.2903,116.6391,31.9805,116.4641Q30.6707,116.289,29.3968,116.0981Q28.1229,115.90729999999999,26.888,115.701Q25.6531,115.4947,24.4602,115.2735Q23.2673,115.0523,22.1192,114.8168Q20.9711,114.5812,19.8707,114.3319Q18.7702,114.0825,17.72,113.82Q16.6698,113.5574,15.6725,113.28229999999999Q14.6751,113.0072,13.7329,112.7202Q12.7907,112.4332,11.9059,112.135Q11.0212,111.83670000000001,10.1961,111.52799999999999Q9.37096,111.2193,8.60742,110.9008Q7.84388,110.5823,7.14376,110.25489999999999Q6.44365,109.9274,5.80865,109.5918Q5.17365,109.2561,4.60529,108.9131Q4.03693,108.5701,3.53658,108.2205Q3.03624,107.8709,2.60511,107.5156Q2.17398,107.1602,1.81311,106.8001Q1.45224,106.4399,1.16249,106.0757Q0.872744,105.7116,0.654821,105.3443Q0.436898,104.977,0.291324,104.6075Q0.14575,104.238,0.0728749,103.8671Q0,103.4963,0,103.125Q0,102.7537,0.0728749,102.3829Q0.14575,102.012,0.291324,101.6425Q0.436898,101.273,0.654821,100.9057Q0.872744,100.5384,1.16249,100.1743Q1.45224,99.8101,1.81311,99.4499Q2.17398,99.0898,2.60511,98.7344Q3.03624,98.3791,3.53658,98.0295Q4.03693,97.67995,4.60529,97.33691Q5.17365,96.99388,5.80865,96.65823Q6.44365,96.32258,7.14376,95.99512Q7.84388,95.66767,8.60742,95.3492Q9.37096,95.03072,10.1961,94.722Q11.0212,94.41328,11.9059,94.11505Q12.7907,93.81682,13.7329,93.5298Q14.6751,93.24278,15.6725,92.96767Q16.6698,92.69256,17.72,92.43001Q18.7702,92.16746,19.8707,91.91811Q20.9711,91.66877,22.1192,91.43322Q23.2673,91.19767,24.4602,90.97649Q25.6531,90.7553,26.888,90.54902Q28.1229,90.34274,29.3968,90.15185Q30.6707,89.96097,31.9805,89.78594Q33.2903,89.61091,34.6329,89.45216Q35.9755,89.29341,37.3476,89.15132Q38.7198,89.00923,40.1182,88.884146Q41.5165,88.759059,42.9378,88.651277Q44.359,88.543495,45.7997,88.453277Q47.2404,88.363059,48.697,88.290623Q50.1537,88.218186,51.6228,88.163705Q53.0919,88.109225,54.57,88.072831Q56.048,88.0364374,57.5314,88.0182187Q59.0148,88,60.5,88Q61.9852,88,63.4686,88.0182187Q64.952,88.0364374,66.43,88.072831Q67.9081,88.109225,69.3772,88.163705Q70.8463,88.218186,72.303,88.290623Q73.7596,88.363059,75.2003,88.453277Q76.641,88.543495,78.0622,88.651277Q79.4835,88.759059,80.8818,88.884146Q82.2802,89.00923,83.6523,89.15132Q85.0245,89.29341,86.3671,89.45216Q87.7097,89.61091,89.0195,89.78594Q90.3293,89.96097,91.6032,90.15185Q92.8771,90.34274,94.112,90.54902Q95.3469,90.7553,96.5398,90.97649Q97.7327,91.19767,98.8808,91.43322Q100.029,91.66877,101.129,91.91811Q102.23,92.16746,103.28,92.43001Q104.33,92.69256,105.328,92.96767Q106.325,93.24278,107.267,93.5298Q108.209,93.81682,109.094,94.11505Q109.979,94.41328,110.804,94.722Q111.629,95.03072,112.393,95.3492Q113.156,95.66767,113.856,95.99512Q114.556,96.32258,115.191,96.65823Q115.826,96.99388,116.395,97.33691Q116.963,97.67995,117.463,98.0295Q117.964,98.3791,118.395,98.7344Q118.826,99.0898,119.187,99.4499Q119.548,99.8101,119.838,100.1743Q120.127,100.5384,120.345,100.9057Q120.563,101.273,120.709,101.6425Q120.854,102.012,120.927,102.3829Q121,102.7537,121,103.125Z"
                fill="#323D52" fill-opacity="1" style="mix-blend-mode:passthrough" />
        </g>
        <g>
            <path
                d="M97.8368,12.3035L93.5,13.75L97.8368,15.1965C100.2996,16.017699999999998,102.2323,17.950400000000002,103.054,20.4133L104.5,24.75L105.947,20.4133C106.768,17.950400000000002,108.7,16.017699999999998,111.163,15.1965L115.5,13.75L111.163,12.3035C108.7,11.48228,106.768,9.54963,105.947,7.08675L104.5,2.75L103.054,7.08675C102.2323,9.54963,100.2996,11.48228,97.8368,12.3035ZM107.212,30.7202L104.5,31.625L107.212,32.5297C108.752,33.0413,109.959,34.2485,110.473,35.7885L111.375,38.5L112.277,35.7885C112.791,34.2485,114.001,33.0413,115.539,32.5297L118.25,31.625L115.539,30.7203C113.999,30.2088,112.791,29.0015,112.277,27.4615L111.375,24.75L110.473,27.4615C109.959,29.0015,108.749,30.2088,107.212,30.7202ZM5.4615,25.2202L2.75,26.125L5.4615,27.0298C7.0015,27.5413,8.20875,28.7485,8.72025,30.2885L9.625,33L10.52975,30.2885C11.04125,28.7485,12.25125,27.5413,13.7885,27.0298L16.5,26.125L13.7885,25.2203C12.2485,24.7088,11.04125,23.4988,10.52975,21.9615L9.625,19.25L8.72025,21.9615C8.20875,23.5015,6.99875,24.7087,5.4615,25.2202ZM104.462,104.973L101.75,105.875L104.462,106.777C106.002,107.291,107.209,108.501,107.723,110.039L108.625,112.75L109.527,110.039C110.041,108.499,111.251,107.291,112.789,106.777L115.5,105.875L112.789,104.973C111.249,104.459,110.041,103.249,109.527,101.7115L108.625,99L107.723,101.7115C107.209,103.252,105.999,104.459,104.462,104.973Z"
                fill="#929292" fill-opacity="1" style="mix-blend-mode:passthrough" />
        </g>

        <g>
            <path
                d="M65.1614390625,61.0719779296875C69.7271390625,61.9845779296875,73.9191390625,64.2317779296875,77.20643906250001,67.5289779296875C78.24863906249999,68.6080779296875,78.2337390625,70.3231779296875,77.1729390625,71.38397792968749C76.1121390625,72.4446779296875,74.3970390625,72.4596779296875,73.3179390625,71.4174779296875C70.19983906249999,68.2900779296875,66.0439390625,66.41367792968751,61.6359390625,66.1429779296875L65.1614390625,61.0719779296875ZM53.1247390625,49.4807779296875C46.3985390625,50.8994779296875,40.2318390625,54.2480779296875,35.378939062499995,59.1167779296875C34.3042390625,60.1892779296875,32.5637390625,60.1880779296875,31.490439062500002,59.1139779296875C30.417239062500002,58.0399779296875,30.417239062500002,56.2994779296875,31.490439062500002,55.2254779296875C38.4186390625,48.276977929687504,47.6156390625,44.053277929687496,57.4009390625,43.3262779296875L53.1247390625,49.4807779296875ZM75.58393906250001,46.0707779296875L72.3444390625,50.734777929687496C77.34203906249999,52.4991779296875,81.8794390625,55.3636779296875,85.6214390625,59.1167779296875C86.6962390625,60.1892779296875,88.4367390625,60.1880779296875,89.5100390625,59.1140779296875C90.5832390625,58.0399779296875,90.5832390625,56.2994779296875,89.5099390625,55.2254779296875C85.5453390625,51.2512779296875,80.8049390625,48.1359779296875,75.58393906250001,46.0734779296875L75.58393906250001,46.0707779296875ZM65.58223906250001,31.5562779296875C50.396739062500004,30.0987779296875,34.7052390625,35.1862779296875,23.0754790625,46.8132779296875C21.9964290625,47.8553779296875,20.2812590625,47.840477929687495,19.2204960625,46.7797779296875C18.1597350625,45.7189779296875,18.1448230625,44.0037779296875,19.1869770625,42.9247779296875C32.7967390625,29.3149779296875,51.4499390625,23.8232479296875,69.1269390625,26.4494979296875L65.5794390625,31.5562779296875L65.58223906250001,31.5562779296875ZM85.7039390625,31.5094779296875L82.5194390625,36.093777929687505C88.2534390625,38.718477929687495,93.4710390625,42.3489779296875,97.9249390625,46.8132779296875C99.0040390625,47.855477929687495,100.7192390625,47.8405779296875,101.7800390625,46.7797779296875C102.8408390625,45.7189779296875,102.8557390625,44.0037779296875,101.8134390625,42.9247779296875C97.1310390625,38.2329779296875,91.6832390625,34.3735779296875,85.7039390625,31.5122779296875L85.7039390625,31.5094779296875ZM66.65193906249999,80.5474779296875C70.05233906250001,83.9444779296875,70.0536390625,89.4552779296875,66.6549390625,92.8539779296875C63.2563390625,96.2526779296875,57.7455390625,96.2513779296875,54.3484390625,92.8509779296875C50.9509390625,89.4542779296875,50.9503390625,83.9463779296875,54.3471390625,80.5488779296875C57.7438390625,77.1513779296875,63.2517390625,77.15077792968751,66.6492390625,80.5474779296875L66.65193906249999,80.5474779296875ZM84.0897390625,19.7559889296875C85.3290390625,20.6338779296875,85.6220390625,22.350147929687502,84.7442390625,23.5894879296875L37.9942390625,89.5894779296875C37.121239062499995,90.8424779296875,35.3945390625,91.1440779296875,34.1483390625,90.2614779296875C32.9022390625,89.3787779296875,32.6139390625,87.6497779296875,33.5062390625,86.4104779296875L80.2562390625,20.4104879296875C81.1341390625,19.1711996296875,82.8504390625,18.8781759296875,84.0897390625,19.7559889296875Z"
                fill="#1677FF" fill-opacity="1" style="mix-blend-mode:passthrough" />
        </g>
    </g>
</svg>