<svg xmlns="http://www.w3.org/2000/svg" xmlns:xlink="http://www.w3.org/1999/xlink" fill="none" version="1.1" width="22" height="12" viewBox="0 0 22 12"><g><path d="M5.9671631,2.2429245C3.934324,2.2429245,2.4597344,4.0320182,2.4597344,5.9929895C2.4597344,7.9539604,3.9358881,9.7430573,5.9671631,9.7430573C7.3229089,9.7430573,8.4300232,8.9477301,9.0179834,7.8320866Q9.6278353,8.9883556,10.372165,10.127437C9.233799,11.34433,7.6340027,12.024161,5.9671631,11.999344C2.5301023,11.999344,0,9.4133625,0,5.9992399C0,2.6319938,2.5817046,0.00069752306,5.9671631,0.00069752306C7.1004276,-0.0071225222,8.2128086,0.30542779,9.1759195,0.90227592C10.956999,2.0163579,11.557469,3.5179462,12.104771,5.469543C12.348713,6.3414345,12.573887,7.1680107,13.013291,7.9039612C13.333267,8.4973164,13.812521,8.9897318,14.397186,9.325861C14.895636,9.6074476,15.458679,9.7549706,16.031275,9.753994C18.064114,9.753994,19.5387,7.9648991,19.5387,6.0039291C19.5387,4.0429564,18.065676,2.2538621,16.031275,2.2538621C14.677094,2.2538621,13.568415,3.0491889,12.98202,4.163271Q12.372166,3.0085638,11.627836,1.8694811C12.766159,0.65381992,14.365376,-0.024874646,16.031275,0.00069752306C19.471464,0.00069752306,22,2.5851178,22,5.9992399C22,9.3680477,19.418299,11.999344,16.031275,11.999344C14.883467,12.007147,13.757453,11.686141,12.786554,11.074329C11.213451,10.07275,10.544177,8.7446003,10.034405,7.0117579C9.7216606,5.9617395,9.5121202,4.9632845,8.9867096,4.0929565C8.6667681,3.499176,8.187541,3.0062456,7.6028171,2.6694944C7.1040287,2.3875177,6.5402379,2.2404833,5.9671631,2.2429245Z" fill-rule="evenodd" fill="#FFFFFF" fill-opacity="1"/></g></svg>