<svg xmlns="http://www.w3.org/2000/svg" xmlns:xlink="http://www.w3.org/1999/xlink" fill="none" version="1.1" width="20" height="20" viewBox="0 0 20 20"><defs><clipPath id="master_svg0_50_3945"><rect x="0" y="0" width="20" height="20" rx="0"/></clipPath></defs><g clip-path="url(#master_svg0_50_3945)"><g><path d="M10.99298706057,11.000653075695313C13.2213395,11.000653075695313,15.384433300000001,10.958180999695312,17.5447283,11.017442323695313C18.737052900000002,11.050121307695312,19.7236118,12.144909737695313,19.7634859,13.384903637695313C19.8067579,14.731928337695312,19.810554500000002,16.08275083769531,19.7632856,17.429575437695313C19.716017700000002,18.777399537695313,18.6259246,19.77275183769531,17.2719054,19.781546637695314C16.0233169,19.789740537695312,14.7745285,19.791739437695313,13.525939900000001,19.78104783769531C12.0961694,19.76875593769531,10.9960845949,18.662375937695312,10.9938858033,17.245595437695314C10.9906890868,15.183434437695311,10.99298706057,13.121274737695312,10.99298706057,11.000653075695313ZM11.93837279,14.834162237695313C11.93837279,15.599465337695312,11.93277663,16.364867637695312,11.93977207,17.13006973769531C11.94916612,18.14840793769531,12.5738602,18.786992537695312,13.5833039,18.795487437695314C14.7977142,18.805680237695313,16.012324800000002,18.805080437695313,17.2268357,18.795487437695314C18.183314799999998,18.787892837695313,18.779626399999998,18.199074737695312,18.7919192,17.234302537695314C18.807508900000002,16.01999143769531,18.808208,14.805181237695312,18.7928176,13.590869937695313C18.780125599999998,12.588421737695313,18.1809158,11.962028507695312,17.1789675,11.945938887695313C15.5988936,11.920555117695313,14.0180223,11.943939987695313,12.4375489,11.935045657695312C12.0767831,11.933046757695312,11.92987901,12.078352337695312,11.935275260000001,12.438418637695312C11.94726717,13.236899637695313,11.93897247,14.035581337695312,11.93837279,14.834162237695313Z" fill="#FFFFFF" fill-opacity="1" style="mix-blend-mode:passthrough"/></g><g><path d="M9.291278796875,10.992857360910937C9.291278796875,11.171341698710938,9.291278796875,11.299958048710938,9.291278796875,11.428574378710938C9.291278796875,13.391697678710937,9.295175596875,15.354722478710936,9.289979896875,17.317846778710937C9.286381696875,18.67856167871094,8.221773596875,19.764956478710936,6.864656496875,19.779947278710935C5.583788896875,19.794137978710935,4.302521496875,19.79473777871094,3.021753796875,19.77974697871094C1.655541496875,19.763757678710938,0.545463233875,18.684359978710937,0.513883640875,17.31694797871094C0.484602641275,16.053369078710936,0.483103656175,14.787991278710937,0.510985519875,13.524412678710938C0.542964748875,12.080351278710937,1.674129396875,10.998854064810937,3.120589496875,10.994357299710938C5.149870896875,10.988260650510938,7.179251696875,10.992857360910937,9.291278796875,10.992857360910937ZM8.345493796875001,14.892822278710938C8.345493796875001,14.078352478710936,8.341196996875,13.263880978710937,8.347692996875,12.449410278710937C8.350191596875,12.140711178710937,8.271642196875,11.936143518710937,7.908478296875,11.937742648710937C6.296326596875,11.945037838710938,4.683175096875,11.912358878710938,3.072221796875,11.958428978710938C2.084563696875,11.986710368710938,1.500843196875,12.655475578710938,1.490649696875,13.646832178710937C1.4786576068750001,14.810275278710938,1.479656876875,15.973919878710937,1.489550466875,17.13736297871094C1.498344696875,18.18248317871094,2.1201405968750002,18.790188778710938,3.178652496875,18.796383878710937C4.358785896875,18.80318017871094,5.539018596875,18.803579778710937,6.719051396875,18.796184078710937C7.726396996875,18.789987078710936,8.328604696875,18.193675478710936,8.343594996875,17.186529678710937C8.354887496875001,16.42212817871094,8.345893896875001,15.657426378710937,8.345493796875001,14.892822278710938Z" fill="#FFFFFF" fill-opacity="1" style="mix-blend-mode:passthrough"/></g><g><path d="M10.99274978641,9.268775941210938C10.99274978641,8.661371241210938,10.99274978641,8.066857341210937,10.99274978641,7.4723434412109375C10.99274978641,6.024984841210937,10.99125061033,4.577725441210937,10.99314956664,3.1303660412109373C10.9950485229,1.6865046412109375,12.0799431,0.5451463722109375,13.5160103,0.5176641472109375C14.7798882,0.4933799268109375,16.0448661,0.4948789594109375,17.308844999999998,0.5174643042109375C18.6336832,0.5410489552109375,19.7186794,1.5841709412109375,19.7636499,2.9247996412109374C19.8088207,4.270624641210937,19.8112192,5.620547741210937,19.7627516,6.966172241210938C19.715182300000002,8.284715141210938,18.6838527,9.276470141210938,17.365809,9.294158941210938C15.320038799999999,9.321540841210938,13.2735679,9.303652741210938,11.22739868,9.303353341210938C11.16483842,9.303354241210938,11.1022789,9.285465241210938,10.99274978641,9.268775941210938ZM14.7935798,8.379154241210937C15.5753717,8.379154241210937,16.357463799999998,8.395244141210938,17.1387553,8.375057241210937C18.1127219,8.349873541210938,18.7681956,7.762156041210938,18.7848854,6.8673372412109375C18.8090692,5.570480341210938,18.808770199999998,4.272523641210937,18.782287099999998,2.9757666412109374C18.764998900000002,2.1317151412109374,18.110824100000002,1.5103191412109376,17.2686701,1.5012250412109376C16.037969099999998,1.4879336312109375,14.8069694,1.4881335512109375,13.576270300000001,1.5007253412109376C12.6403786,1.5103191412109376,11.96042103,2.1570987412109375,11.94602966,3.0957887412109373C11.92154545,4.692151041210938,11.94333118,6.289212741210937,11.93573612,7.885974841210937C11.93403703,8.250237941210937,12.0913353,8.389247941210938,12.4485031,8.383552041210937C13.229996400000001,8.371059441210939,14.0117881,8.379754041210937,14.7935798,8.379154241210937Z" fill="#FFFFFF" fill-opacity="1" style="mix-blend-mode:passthrough"/></g><g><path d="M9.29156783125,9.28436469814453C9.10628793125,9.293658298144532,8.97657203125,9.30565069814453,8.84685703125,9.305750798144532C6.98206853125,9.30694959814453,5.11718133125,9.312545798144532,3.25239303125,9.304850598144531C1.55099853125,9.29775519814453,0.51187405625,8.262528398144532,0.50238022815,6.574225898144531C0.49608435627,5.458751198144531,0.49298634515,4.343076498144532,0.50327963845,3.2276012981445312C0.51816997525,1.6059553981445311,1.62754893125,0.5147646905445312,3.24979453125,0.5125661373445313C4.38195853125,0.5110671043345313,5.51422263125,0.5104674816245313,6.64638663125,0.5127659797445312C8.21136953125,0.5159638882445312,9.28976913125,1.5850688981445313,9.29106803125,3.135261298144531C9.29276653125,5.165142098144531,9.29156783125,7.195122698144531,9.29156783125,9.28436469814453ZM8.34548283125,5.455553098144531C8.34548283125,4.672961698144531,8.361472631249999,3.890070698144531,8.341485531250001,3.1079790981445314C8.31590223125,2.109527898144531,7.68451263125,1.5028223381445311,6.69155833125,1.498624978144531C5.54270503125,1.4937282781445314,4.39385153125,1.4951273181445313,3.24499823125,1.4981254981445313C2.1448131312500003,1.5010234681445311,1.49943273125,2.1295148981445315,1.4896389812500002,3.2241036981445315C1.47954559125,4.356167598144531,1.48154420125,5.488531598144531,1.48863965125,6.6206964981445315C1.4955351912500001,7.7089890981445315,2.12482603125,8.36106489814453,3.22251293125,8.374755898144532C4.75411753125,8.39384319814453,6.28612133125,8.372657298144532,7.81782533125,8.384649798144531C8.20487353125,8.387648098144531,8.35617543125,8.235646698144532,8.34977963125,7.853095498144532C8.33628843125,7.054113898144531,8.34568263125,6.254733598144531,8.34548283125,5.455553098144531Z" fill="#FFFFFF" fill-opacity="1" style="mix-blend-mode:passthrough"/></g></g></svg>