<svg xmlns="http://www.w3.org/2000/svg" xmlns:xlink="http://www.w3.org/1999/xlink" fill="none" version="1.1" width="18" height="18" viewBox="0 0 18 18"><defs><clipPath id="master_svg0_155_27217"><rect x="0" y="0" width="18" height="18" rx="0"/></clipPath></defs><g clip-path="url(#master_svg0_155_27217)"><g><path d="M0.613419,11.7704C0.952598,11.7704,1.22684,12.0454,1.22684,12.3842L1.22684,15.8601C1.22748,16.3617,1.63398,16.7682,2.13562,16.7689L5.61192,16.7689C5.95103,16.7684,6.22618,17.0432,6.22618,17.3823C6.22618,17.7214,5.95103,17.9962,5.61192,17.9957L2.13562,17.9957C0.958467,17.9957,0,17.0372,0,15.8597L0,12.3842C0,12.0454,0.275021,11.7704,0.613419,11.7704ZM17.3823,11.7704C17.7215,11.7704,17.9957,12.0454,17.9957,12.3842L17.9957,15.8601C17.9957,17.0376,17.0372,17.9961,15.8597,17.9961L12.3842,17.9961C12.0453,17.9961,11.7706,17.7214,11.7706,17.3825C11.7706,17.0436,12.0453,16.7689,12.3842,16.7689L15.8601,16.7689C16.3617,16.7682,16.7682,16.3617,16.7689,15.8601L16.7689,12.3842C16.7689,12.0454,17.0431,11.7708,17.3823,11.7708L17.3823,11.7704ZM15.8601,0C17.0372,0,17.9957,0.958466,17.9957,2.13601L17.9957,5.61192C17.9957,5.95081,17.721,6.22553,17.3821,6.22553C17.0432,6.22553,16.7685,5.95081,16.7685,5.61192L16.7685,2.13601C16.7678,1.63437,16.3613,1.22787,15.8597,1.22723L12.3834,1.22723C12.0445,1.22723,11.7698,0.952504,11.7698,0.613614C11.7698,0.274724,12.0445,0,12.3834,0L15.8601,0ZM5.61192,0C5.94218,0.0117968,6.20382,0.282948,6.20382,0.613419C6.20382,0.943889,5.94218,1.21504,5.61192,1.22684L2.13601,1.22684C1.63422,1.22748,1.22766,1.63422,1.22723,2.13601L1.22723,5.61231C1.22723,5.9512,0.952504,6.22593,0.613614,6.22593C0.274724,6.22593,0,5.9512,0,5.61231L0,2.13562C0,0.958466,0.958467,0,2.13601,0L5.61192,0Z" fill="#434343" fill-opacity="1" style="mix-blend-mode:passthrough"/></g><g><path d="M5,13L6.24,13L7.1866699999999994,10.24966L10.76,10.24966L11.69333,13L13,13L9.68,4L8.30667,4L5,13ZM7.49333,9.35334L7.97333,7.96589C8.32,6.94679,8.64,5.97681,8.946670000000001,4.920873L9,4.920873C9.32,5.96453,9.62667,6.94679,9.98667,7.96589L10.453330000000001,9.35334L7.49333,9.35334Z" fill="#0079D1" fill-opacity="1"/></g></g></svg>