<svg xmlns="http://www.w3.org/2000/svg" xmlns:xlink="http://www.w3.org/1999/xlink" fill="none" version="1.1" width="18" height="18" viewBox="0 0 18 18"><g><path d="M1.77459,0.253311L1.83366,0.306773L9.13202,7.50084L16.1619,0.571965C16.5698,0.166017,17.2309,0.152343,17.6557,0.541066C18.0806,0.929788,18.1158,1.58065,17.7354,2.01173L17.6817,2.06996L10.6508,8.99778L17.6811,15.9267C18.0935,16.3285,18.1077,16.9804,17.7134,17.3994C17.319,17.8184,16.6584,17.8532,16.2209,17.4781L16.1619,17.4241L9.13202,10.4952L1.83367,17.6898C1.42526,18.0925,0.766897,18.1046,0.343477,17.7173C-0.0799417,17.3301,-0.116759,16.6821,0.260143,16.2506L0.314383,16.1924L7.61327,8.99778L0.31492,1.80424C-0.0906336,1.40129,-0.101624,0.7548,0.290005,0.338687C0.681635,-0.0774256,1.33652,-0.115087,1.77459,0.253311Z" fill="#FFFFFF" fill-opacity="0.800000011920929" style="mix-blend-mode:passthrough"/></g></svg>