<svg xmlns="http://www.w3.org/2000/svg" xmlns:xlink="http://www.w3.org/1999/xlink" fill="none" version="1.1" width="16.356800079345703" height="16.365341186523438" viewBox="0 0 16.356800079345703 16.365341186523438"><g><path d="M13.2891,0.493977C12.6246,-0.164659,11.5535,-0.164659,10.8891,0.493977L2.17544,9.19398C2.05313,9.30713,1.96762,9.45439,1.92998,9.6167L0.0208906,15.1803L0.0208906,15.2485C-0.0450926,15.5495,0.0475164,15.8634,0.266345,16.0803C0.433819,16.2467,0.657717,16.3441,0.893618,16.3531C0.961799,16.3694,1.02998,16.3694,1.09816,16.3531L6.74362,14.4031C6.89816,14.3474,7.04137,14.2642,7.16635,14.1576L15.8663,5.45761C16.5203,4.8072,16.5203,3.74893,15.8663,3.09852L13.2891,0.493977ZM1.09816,15.2485L2.77544,10.4076L5.89816,13.6394L1.09816,15.2485ZM6.8118,13.0258L3.33453,9.54852L9.77089,3.11216L13.2482,6.58943L6.8118,13.0258ZM15.13,4.74852L13.7663,6.11216L10.2618,2.62125L11.6254,1.25761C11.8778,1.01865,12.273,1.01865,12.5254,1.25761L15.1027,3.83489C15.2253,3.95136,15.2902,4.11607,15.28,4.28489C15.2996,4.45388,15.2449,4.62306,15.13,4.74852Z" fill="#FFFFFF" fill-opacity="1" style="mix-blend-mode:passthrough"/></g></svg>