<svg xmlns="http://www.w3.org/2000/svg" xmlns:xlink="http://www.w3.org/1999/xlink" fill="none" version="1.1" width="20" height="20" viewBox="0 0 20 20"><defs><clipPath id="master_svg0_257_15930"><rect x="0" y="0" width="20" height="20" rx="0"/></clipPath></defs><g clip-path="url(#master_svg0_257_15930)"><g><path d="M5.6613346875,13.2612221875C5.4151846875,12.8304521875,5.0151846875,12.5227621875,4.5536446875,12.3996821875C4.3997946875,12.368912187500001,4.245954687499999,12.3381421875,4.0613346875000005,12.3381421875C3.7536446875,12.3381421875,3.4151846875,12.4304521875,3.1382596874999997,12.5843021875C2.2459523875,13.107372187500001,1.9382596875,14.215072187499999,2.4613366875000002,15.107372187500001C2.7074906875,15.5381421875,3.1074906875,15.8458321875,3.5690246875,15.9689121875C4.0305646875,16.0919921875,4.5536446875,16.0304521875,4.9844146875,15.7843021875C5.876724687499999,15.2612221875,6.1536446875,14.1535321875,5.6613346875,13.2612221875ZM11.4767246875,13.2612221875C11.2305646875,12.8304521875,10.8305646875,12.5227621875,10.3690246875,12.3996821875C10.2151846875,12.368912187500001,10.0613346875,12.3381421875,9.876724687500001,12.3381421875C9.5690246875,12.3381421875,9.2305646875,12.4304521875,8.953644687499999,12.5843021875C8.8921046875,12.615072187500001,8.861334687500001,12.645842187500001,8.7997946875,12.6766021875L8.7690246875,12.707372187499999L8.6767246875,12.7996821875L8.615184687500001,12.861222187500001C8.5844146875,12.8919921875,8.5536446875,12.8919921875,8.5536446875,12.9227621875C8.5228746875,12.953532187499999,8.4921046875,12.984302187499999,8.4921046875,13.0150621875C8.4921046875,13.0458321875,8.461334687499999,13.0458321875,8.461334687499999,13.0766021875C8.3074946875,13.2612221875,8.215184687499999,13.4766021875,8.1536446875,13.722762187499999C8.092104687500001,13.968912187499999,8.0613346875,14.2150621875,8.092104687500001,14.4304521875L8.092104687500001,14.461222187499999C8.092104687500001,14.4919921875,8.092104687500001,14.5535221875,8.122874687500001,14.584292187500001C8.122874687500001,14.615062187500001,8.122874687500001,14.6458321875,8.1536446875,14.6458321875C8.1536446875,14.6766021875,8.1844146875,14.707372187499999,8.1844146875,14.7381421875C8.1844146875,14.7689121875,8.215184687499999,14.7996821875,8.215184687499999,14.8304521875Q8.215184687499999,14.861222187500001,8.2459546875,14.8919921875C8.2767246875,14.953522187499999,8.3074946875,15.0150621875,8.3382646875,15.0458321875C8.5844146875,15.4766021875,8.9844146875,15.7842921875,9.445954687499999,15.9073721875C9.938254687499999,16.0304521875,10.4305646875,15.9689121875,10.8613346875,15.7227621875C11.6613346875,15.2612221875,11.9690246875,14.1535221875,11.4767246875,13.2612221875ZM7.5382546875,10.8919921875C7.5997946875,10.861222187500001,7.6305646875,10.861222187500001,7.6921046875,10.8304521875L7.7228746875,10.8304521875C7.7844146875,10.7996821875,7.8459546875,10.7689121875,7.8767246875,10.7381421875C8.7690246875,10.2150721875,9.0767246875,9.1073721875,8.5536446875,8.2150691875C8.3074846875,7.7843001875,7.9074946875,7.4766071875,7.4459546875,7.3535303875C7.2921046875,7.3227612875,7.1382546875,7.2919921875,6.9536446875,7.2919921875C6.6459546875,7.2919921875,6.3074946875,7.3843000875,6.0305646875,7.5381461875C5.9690246875,7.5689151875,5.938254687500001,7.5996841875,5.876724687499999,7.6304541875L5.8459546875,7.6612231875C5.8151846875,7.6919921875,5.7536446875,7.7227611875,5.7228746875,7.7535311875C5.1690246875,8.2458391875,4.9844146875,9.0150721875,5.1997946875,9.6919921875C5.230564687499999,9.7535321875,5.230564687499999,9.7843021875,5.2613346875,9.8458421875L5.2613346875,9.876612187500001C5.2921046875,9.9381421875,5.322874687500001,9.9996821875,5.3536446875,10.0304521875C5.3844146875,10.0919921875,5.4151846875,10.1227621875,5.4459546875000004,10.1843021875Q5.4459546875000004,10.2150721875,5.4767246875,10.2150721875C5.5074946874999995,10.2458421875,5.5382646875,10.3073821875,5.5690246875,10.3381421875C6.0613346875000005,10.9227621875,6.8305646875,11.1381521875,7.5382546875,10.8919921875Z" fill="#0079D1" fill-opacity="1" style="mix-blend-mode:passthrough"/></g><g><path d="M19.01544453125,8.8919803125C18.40004453125,7.8458303125,17.35394453125,7.2304503125,16.24624453125,7.1381403125C16.33854453125,6.9535203125,16.430844531250003,6.7381403125,16.461644531250002,6.5227503125C16.70774453125,5.5996803125,16.58464453125,4.6766003125,16.12314453125,3.8458303125C15.66164453125,3.0150613125,14.89234453125,2.4612153125,14.00004453125,2.2150613125C13.07694453125,1.9689073125,12.15394453125,2.0919843925,11.32314453125,2.5535233125L5.20005453125,6.0919803125C4.4000545312499995,6.5535203125,3.81544453125,7.3227503125,3.56928453125,8.2150603125C3.35390453125,9.0458303125,3.44621453125,9.876600312499999,3.78467453125,10.6458303125C3.26159453125,10.6766003125,2.76928453125,10.8304403125,2.27698453125,11.1073703125C0.6154414312500001,12.0920203125,0.03082653125000001,14.2458203125,1.01544153125,15.9381203125C1.47697953125,16.7381203125,2.2462145312499997,17.3227203125,3.13851453125,17.568920312499998C3.44621453125,17.6612203125,3.75390453125,17.6920203125,4.06159453125,17.6920203125C4.67698453125,17.6920203125,5.26159453125,17.5381203125,5.81544453125,17.2304203125C6.27697453125,16.9535203125,6.67698453125,16.584320312499997,6.95390453125,16.1535203125C7.41544453125,16.861220312500002,8.123134531249999,17.353520312500002,8.95390453125,17.568920312499998C9.26159453125,17.6612203125,9.56928453125,17.6920203125,9.87698453125,17.6920203125C10.49236453125,17.6920203125,11.07694453125,17.5381203125,11.63084453125,17.2304203125L17.72314453125,13.7227203125C19.41544453125,12.7381203125,20.00004453125,10.5842903125,19.01544453125,8.8919803125ZM11.90774453125,3.6612103124999997C12.43084453125,3.3535203124999997,13.04624453125,3.2919803125,13.63084453125,3.4458303125C14.21544453125,3.5996803125000003,14.70774453125,3.9689103125000003,15.01544453125,4.5227503124999995C15.66164453125,5.6304403125,15.26164453125,7.0150603125,14.18464453125,7.6612103125L10.40005453125,9.8458303125C10.55394453125,9.015060312500001,10.43082453125,8.1842903125,10.00005453125,7.4458303125C9.56928453125,6.7073703125,8.92313453125,6.1535203125,8.123134531249999,5.8766003125L11.90774453125,3.6612103124999997ZM9.87697453125,11.8766003125C10.06159453125,11.8766003125,10.27697453125,11.9073703125,10.46159453125,11.9689103125C11.04624453125,12.1227203125,11.53854453125,12.4920203125,11.84624453125,13.0458203125C12.49234453125,14.1535203125,12.09234453125,15.5381203125,11.01544453125,16.1843203125C10.49236453125,16.4920203125,9.87697453125,16.553520312499998,9.29236453125,16.3997203125C8.70774453125,16.2458203125,8.21544453125,15.8766203125,7.90774453125,15.3227203125C7.87698453125,15.2612203125,7.84621453125,15.1997203125,7.81544453125,15.1073203125C7.81544453125,15.0766203125,7.78467453125,15.0458203125,7.78467453125,15.0150203125C7.78467453125,14.9843203125,7.75390453125,14.9535203125,7.75390453125,14.8920203125C7.75390453125,14.8612203125,7.72313453125,14.7997203125,7.72313453125,14.7689203125C7.72313453125,14.7381203125,7.69236453125,14.7073203125,7.69236453125,14.6766203125C7.69236453125,14.6150203125,7.66159453125,14.5535203125,7.66159453125,14.5227203125L7.66159453125,14.4612203125C7.63082453125,14.1535203125,7.63082453125,13.8766203125,7.72313453125,13.5689203125C7.81544453125,13.2612203125,7.93851453125,13.0150203125,8.123134531249999,12.7689203125C8.123134531249999,12.7381203125,8.15390453125,12.7381203125,8.18467453125,12.7073203125C8.21544453125,12.6766203125,8.24621453125,12.6458203125,8.276984531250001,12.5843203125L8.369284531249999,12.4920203125L8.43082453125,12.4304203125C8.46159453125,12.3997203125,8.523134531250001,12.3689203125,8.55390453125,12.3381203125C8.58467453125,12.3381203125,8.58467453125,12.3073203125,8.61544453125,12.3073203125C8.67698453125,12.2766203125,8.73851453125,12.2150203125,8.80005453125,12.1843203125C9.07698453125,11.9996803125,9.47697453125,11.8766003125,9.87697453125,11.8766003125ZM5.44621453125,7.4458303125C5.50774453125,7.4150603125,5.53851453125,7.3535203125,5.60005453125,7.3227503125L5.63082453125,7.2919803125C5.69236453125,7.2612103125,5.75390453125,7.1996803125,5.81544453125,7.1689103125C6.15390453125,6.9535203125,6.55390453125,6.8612103125,6.95390453125,6.8612103125C7.13851453125,6.8612103125,7.35390453125,6.8919803125,7.53851453125,6.9535203125C8.123134531249999,7.1073703125,8.61544453125,7.4766003125,8.92313453125,8.0304403125C9.56928453125,9.1381403125,9.16928453125,10.5227503125,8.09236453125,11.1689103125C8.030824531250001,11.1996803125,7.96928453125,11.2304403125,7.87698453125,11.2612103125Q7.84621453125,11.2612103125,7.84621453125,11.2919803125C7.78467453125,11.3227503125,7.72313453125,11.3535203125,7.66159453125,11.3535203125C6.80005453125,11.6304403125,5.84621453125,11.3842903125,5.26159453125,10.7073703125C5.23082453125,10.6458303125,5.16928453125,10.6150603125,5.13851453125,10.5535203125L5.10775453125,10.5227503125C5.07698453125,10.4612103125,5.01544453125,10.3996803125,4.98467453125,10.3381403125C4.95390453125,10.2766003125,4.92313453125,10.2150603125,4.89236453125,10.1227503125L4.89236453125,10.0919803125C4.86159453125,10.0304403125,4.83082453125,9.9689003125,4.83082453125,9.9073703125C4.52313453125,8.9842903125,4.76928453125,8.0304403125,5.44621453125,7.4458303125ZM5.20005453125,16.1535203125C4.67698453125,16.4612203125,4.06159453125,16.553520312499998,3.47698453125,16.368920312500002C2.89236453125,16.215020312500002,2.40005453125,15.8458203125,2.0923645312500003,15.2920203125C1.44621053125,14.1843203125,1.84621453125,12.7997203125,2.92313453125,12.1535203125C3.26159453125,11.9381403125,3.66159453125,11.8458303125,4.06159453125,11.8458303125C4.246214531250001,11.8458303125,4.46159453125,11.8766003125,4.64621453125,11.9381403125C5.23082453125,12.0920203125,5.72313453125,12.4612203125,6.03082453125,13.0150203125C6.67698453125,14.1227203125,6.30774453125,15.5381203125,5.20005453125,16.1535203125ZM17.10774453125,12.6458203125L13.32314453125,14.8304203125C13.47694453125,14.0304203125,13.35394453125,13.1689203125,12.92314453125,12.4304203125C12.49234453125,11.6919803125,11.84624453125,11.1381403125,11.04624453125,10.8612103125L14.83084453125,8.6766003125C15.16924453125,8.4612103125,15.56924453125,8.368910312499999,15.96924453125,8.368910312499999C16.18464453125,8.368910312499999,16.36924453125,8.3996803125,16.58464453125,8.4612103125C17.16924453125,8.615060312499999,17.66154453125,8.9842903125,17.96924453125,9.538140312500001C18.58464453125,10.6150603125,18.21544453125,11.9996803125,17.10774453125,12.6458203125Z" fill="#0079D1" fill-opacity="1" style="mix-blend-mode:passthrough"/></g></g></svg>