<svg xmlns="http://www.w3.org/2000/svg" xmlns:xlink="http://www.w3.org/1999/xlink" fill="none" version="1.1" width="32" height="32" viewBox="0 0 32 32"><defs><clipPath id="master_svg0_6_2896"><rect x="9.875" y="9" width="12.25" height="14" rx="0"/></clipPath></defs><g><rect x="0" y="0" width="32" height="32" rx="16" fill="#1677FF" fill-opacity="1" style="mix-blend-mode:passthrough"/><g><rect x="9.875" y="6" width="12.25" height="20" rx="0" fill="#000000" fill-opacity="0" style="mix-blend-mode:passthrough"/><g clip-path="url(#master_svg0_6_2896)"><g transform="matrix(1,0,0,-1,0,46.6015625)"><g><path d="M16,30.30078125Q16.9570312,30.30078125,17.75,30.76562505Q18.5429688,31.23046875,19.0351562,32.05078125Q19.5,32.87109375,19.5,33.80078125Q19.5,34.73046925,19.0351562,35.55078125Q18.5429688,36.37109325,17.75,36.83593725Q16.9570312,37.30078125,16,37.30078125Q15.0429688,37.30078125,14.25,36.83593725Q13.4570312,36.37109325,12.9648438,35.55078125Q12.5,34.73046925,12.5,33.80078125Q12.5,32.87109375,12.9648438,32.05078125Q13.4570312,31.23046875,14.25,30.76562505Q15.0429688,30.30078125,16,30.30078125ZM14.7421875,28.98828125Q12.6914062,28.93359375,11.296875,27.56640625Q9.9296875,26.17187505,9.875,24.12109375Q9.875,23.765625,10.12109375,23.546875Q10.33984375,23.30078125,10.6953125,23.30078125L21.304688,23.30078125Q21.660156,23.30078125,21.878906,23.546875Q22.125,23.765625,22.125,24.12109375Q22.070312,26.17187505,20.703125,27.56640625Q19.3085938,28.93359375,17.2578125,28.98828125L14.7421875,28.98828125Z" fill="#FFFFFF" fill-opacity="1" style="mix-blend-mode:passthrough"/></g></g></g></g></g></svg>