<svg xmlns="http://www.w3.org/2000/svg" xmlns:xlink="http://www.w3.org/1999/xlink" fill="none" version="1.1" width="16" height="16" viewBox="0 0 16 16"><defs><clipPath id="master_svg0_58_23084"><rect x="0" y="0" width="16" height="16" rx="0"/></clipPath></defs><g clip-path="url(#master_svg0_58_23084)"><g transform="matrix(1,0,0,-1,0,32.668251037597656)"><g><path d="M12.887628656809806,25.105760618798826L13.261169656809807,25.449510618798826L12.887628656809806,25.105760618798826L13.261169656809807,25.449510618798826L12.202803656809806,26.512010518798828L10.272842656809807,28.449510518798828L9.214476356809806,29.512010518798828L8.840935556809807,29.168260518798828L8.156110556809807,28.449510518798828L1.9615583568098067,22.230760118798827Q1.4635039568098067,21.730760118798827,1.2456051568098068,21.074510118798827L0.15611097980980682,17.29326009879883Q0.03159735380980683,16.88701009879883,0.3428813968098068,16.57451009879883Q0.6541654368098069,16.26201009779883,1.0899631268098067,16.35576009779883L4.825371556809807,17.480760118798827Q5.5101964568098065,17.668260118798827,6.008250956809807,18.168260118798827L12.202803656809806,24.387010618798826L12.887628656809806,25.105760618798826ZM5.105527256809807,19.855760118798827L4.825371556809807,19.137010118798827L5.105527256809807,19.855760118798827L4.825371556809807,19.137010118798827Q4.6386011568098064,18.980760118798827,4.420702256809807,18.918260118798827L1.9615583568098067,18.199510118798827L2.677511756809807,20.637010118798827Q2.770896956809807,20.855760118798827,2.8954105568098067,21.043260118798827L3.611363956809807,21.324510118798827L3.611363956809807,20.324510118798827Q3.642492356809807,19.887010118798827,4.109418156809807,19.824510118798827L5.105527256809807,19.824510118798827L5.105527256809807,19.855760118798827ZM11.424593656809806,31.730760518798828L10.957667656809807,31.293260518798828L11.424593656809806,31.730760518798828L10.957667656809807,31.293260518798828L10.272842656809807,30.574510518798828L9.899301356809806,30.230760518798828L10.957667656809807,29.168260518798828L12.887628656809806,27.230760518798828L13.945994656809807,26.168260618798826L14.288406656809807,26.512010518798828L15.004359656809807,27.230760518798828L15.471285656809806,27.668260518798828Q16.031596656809807,28.293260518798828,16.031596656809807,29.105760518798828Q16.031596656809807,29.887010518798828,15.471285656809806,30.512010518798828L14.226149656809806,31.730760518798828Q13.634709656809807,32.32451051879883,12.825371656809807,32.32451051879883Q12.047161656809807,32.32451051879883,11.424593656809806,31.730760518798828ZM9.930430256809807,26.480760518798828L5.447939656809806,21.980760118798827L9.930430256809807,26.480760518798828L5.447939656809806,21.980760118798827Q5.105527256809807,21.699510118798827,4.763114756809807,21.980760118798827Q4.451830656809807,22.355760118798827,4.763114756809807,22.699510118798827L9.245605256809807,27.199510518798828Q9.588017256809806,27.480760518798828,9.930430256809807,27.199510518798828Q10.241714656809807,26.855760518798828,9.930430256809807,26.480760518798828Z" fill="#9CA3AF" fill-opacity="1" style="mix-blend-mode:passthrough"/></g></g></g></svg>