<svg xmlns="http://www.w3.org/2000/svg" xmlns:xlink="http://www.w3.org/1999/xlink" fill="none" version="1.1" width="121" height="121" viewBox="0 0 121 121"><defs><clipPath id="master_svg0_6_1546"><rect x="0" y="0" width="121" height="121" rx="38"/></clipPath></defs><g clip-path="url(#master_svg0_6_1546)"><g><path d="M5.4997501,0L115.49476,0Q120.99451,0,120.99451,5.4997501L120.99451,115.49476Q120.99451,120.99451,115.49476,120.99451L5.4997525,120.99451Q0.0000023078919,120.99451,0.0000023078919,115.49476L0.0000023078919,5.4997525Q0.0000023078919,0.0000023078919,5.4997501,0Z" fill="#C9E3FF" fill-opacity="1" style="mix-blend-mode:passthrough"/></g><g style="opacity:0.10000000149011612;"><path d="M120.989114375,115.58825L120.950614375,116.19322C120.780404375,117.5326,120.122494375,118.76225,119.102694375,119.64706L120.989114375,120.38953C63.104248375,97.934052,20.261194375000002,53.430077,8.365234375,0L115.494874375,0L116.127344375,0.038498208C118.865724375,0.35509914,120.946704375,2.6500504,120.994614375,5.4062543L120.989114375,115.58825Z" fill="#268AF7" fill-opacity="1" style="mix-blend-mode:passthrough"/></g><g style="opacity:0.10000000149011612;"><path d="M120.99425953125,13.4028385737875L120.99425953125,120.1364888671875L120.64227953125,120.4279688671875L120.47728953125,120.5709688671875L119.96030953125,120.9999588671875L10.80126953125,120.9999588671875C25.54060053125,70.5507468671875,67.25070953125001,30.1385788671875,120.99425953125,13.3973388671875L120.99425953125,13.4028385737875ZM120.99425953125,115.4891888671875C120.99426953125,118.5266188671875,118.53193953125,120.9889488671875,115.49450953125,120.9889488671875L119.96580953125,120.9889488671875C120.31159953125,120.7061688671875,120.65624953125,120.4220188671875,120.99975953125,120.1364888671875L120.64227953125,120.4279688671875L120.99425953125,120.1419888671875L120.99425953125,115.4891888671875ZM10.99925665125,120.9889488671875L115.49450953125,120.9889488671875L10.99925665125,120.9889488671875Z" fill="#268AF7" fill-opacity="1" style="mix-blend-mode:passthrough"/></g><g><path d="M60.49716578125,75.6215815390625C88.34239978125,75.6215815390625,110.91337578125,93.6772615390625,110.91337578125,115.9512485390625C110.91337578125,117.6616745390625,110.78138578125,119.3446045390625,110.52288578125,121.0000325390625L10.47143984125,121.0000325390625C10.21284287125,119.3295745390625,10.08412942875,117.6416015390625,10.086456937792,115.9512485390625C10.086456937792,93.6772615390625,32.65193378125,75.6215815390625,60.49716578125,75.6215815390625ZM60.49716578125,20.1676025390625C74.41770178125,20.1676025390625,85.70252178125,31.4524235390625,85.70252178125,45.3729575390625C85.70252178125,59.2934915390625,74.41770178125,70.5783115390625,60.49716578125,70.5783115390625C46.57663678125,70.5783115390625,35.29181278125,59.2934915390625,35.29181278125,45.3729575390625C35.29181278125,31.4524235390625,46.57663678125,20.1676025390625,60.49716578125,20.1676025390625Z" fill="#FFFFFF" fill-opacity="1" style="mix-blend-mode:passthrough"/></g></g></svg>