<svg xmlns="http://www.w3.org/2000/svg" xmlns:xlink="http://www.w3.org/1999/xlink" fill="none" version="1.1" width="28" height="28" viewBox="0 0 28 28"><defs><clipPath id="master_svg0_4_13412"><rect x="0" y="0" width="28" height="28" rx="0"/></clipPath></defs><g clip-path="url(#master_svg0_4_13412)"><g><path d="" fill="#D8D8D8" fill-opacity="0" style="mix-blend-mode:passthrough"/></g><g><path d="M21.387144171875,12.600007812497925C21.910765171875,12.598676515315624,22.348451171875,13.151304963515624,22.395763171875,13.873507103515625C22.443075171875,14.595709403515626,22.084349171875,15.248407403515625,21.569105171875,15.377604703515626L21.387144171875,15.400004403515625L5.212762571875,15.400004403515625C4.689138801875,15.401340503515625,4.251448146875,14.848708903515625,4.204136307375,14.126505003515625C4.156824465875,13.404301043515625,4.515552881875,12.751603093515625,5.030800881875,12.622407441515625L5.212762571875,12.600007812497925L21.387144171875,12.600007812497925Z" fill="#1677FF" fill-opacity="1" style="mix-blend-mode:passthrough"/></g><g><path d="M15.40009595625,21.38719920703125C15.40143205625,21.91082420703125,14.84880045625,22.34851120703125,14.12659655625,22.39582420703125C13.40439259625,22.44313620703125,12.75169464625,22.08441020703125,12.62249899425,21.56916220703125L12.6000993652323,21.38719920703125L12.6000993652323,5.21281870703125C12.59876806805,4.68919616703125,13.15139651625,4.25150918203125,13.87359865625,4.20419734253125C14.59580095625,4.15688611903125,15.24849895625,4.51561143703125,15.377696256250001,5.03085696703125L15.40009595625,5.21281870703125L15.40009595625,21.38719920703125Z" fill="#1677FF" fill-opacity="1" style="mix-blend-mode:passthrough"/></g><g><path d="M13.457082771875,4.36507199703125C13.727899571875,4.18417881403125,14.070886571875,4.14965780403125,14.372316171875,4.27295575303125L14.542821171875,4.36507199703125L17.482543171875,6.32498690703125C17.902439171875002,6.6067707070312505,18.038973171875,7.16180680703125,17.797719171875002,7.60624430703125C17.556468171875,8.05068110703125,17.016667171875,8.23854450703125,16.551632171875,8.03991250703125L16.394846171875002,7.95563650703125L13.999951371875,6.35830540703125L11.603097871875,7.95563650703125C11.209825071874999,8.21754450703125,10.685668971875,8.16149970703125,10.356656071875001,7.82236240703125L10.244946471875,7.68516830703125C9.981945071875,7.29146310703125,10.038033971874999,6.76601500703125,10.378213371874999,6.436702507031249L10.515400871875,6.32498690703125L13.455123871875,4.36507199703125L13.457082771875,4.36507199703125ZM13.457082771875,23.63495420703125C13.727899571875,23.81584720703125,14.070886571875,23.85036420703125,14.372316171875,23.72707020703125L14.542821171875,23.63495420703125L17.482543171875,21.67503920703125C17.902439171875002,21.39325720703125,18.038973171875,20.83822220703125,17.797719171875002,20.39378320703125C17.556465171875,19.94934520703125,17.016664171875,19.761483207031247,16.551632171875,19.96011520703125L16.394846171875002,20.04439120703125L13.999951371875,21.64172220703125L11.603097871875,20.04439120703125C11.209825071874999,19.78248220703125,10.685668971875,19.83852820703125,10.356656071875001,20.17766620703125L10.244946471875,20.31486120703125C9.980837871875,20.70897720703125,10.036974471875,21.23569320703125,10.378213371874999,21.56528820703125L10.515400871875,21.67504320703125L13.455123871875,23.63495820703125L13.457082771875,23.63495420703125ZM20.316437171875,10.24481720703125C20.709709171875,9.98290970703125,21.233864171875,10.03895430703125,21.562877171875,10.37809130703125L21.674587171875,10.515285007031249L23.634403171875,13.45515730703125C23.815967171875,13.72647280703125,23.850506171875,14.07039450703125,23.726513171875,14.37239720703125L23.634403171875,14.54291020703125L21.674587171875,17.48278220703125C21.392818171875,17.902700207031252,20.837810171875,18.03924120703125,20.393396171875,17.797974207031253C19.948980171875,17.55671020703125,19.761125171875,17.01688120703125,19.959749171875,16.551823207031248L20.044021171875002,16.39502920703125L21.639313171875,14.00001330703125L20.044021171875002,11.60499720703125C19.782126171875,11.211704707031249,19.838170171875,10.68752240703125,20.177291171874998,10.35849240703125L20.314478171875,10.24677660703125L20.316437171875,10.24481720703125ZM7.683467371875,10.24481720703125C7.289782271875,9.98180250703125,6.7643604718749994,10.03789470703125,6.4350652718750005,10.37809130703125L6.325315471875,10.515285007031249L4.365500181875,13.45515730703125C4.183933773875,13.72647090703125,4.149396575875,14.07039360703125,4.273388616875,14.37239720703125L4.365500181875,14.54291020703125L6.325315471875,17.48278220703125C6.607084271874999,17.902700207031252,7.162091771875,18.03924120703125,7.6065072718749995,17.797974207031253C8.050921671874999,17.55671020703125,8.238775771875,17.01688220703125,8.040153471875,16.551823207031248L7.955881871875,16.39502920703125L6.360592371875001,14.00001330703125L7.955881871875,11.60303880703125C8.217776271875,11.20974540703125,8.161734771875,10.685562607031251,7.822614471875,10.35653300703125L7.685427471875,10.24481720703125L7.683467371875,10.24481720703125Z" fill="#1677FF" fill-opacity="1" style="mix-blend-mode:passthrough"/></g></g></svg>