<svg xmlns="http://www.w3.org/2000/svg" xmlns:xlink="http://www.w3.org/1999/xlink" fill="none" version="1.1" width="28" height="28" viewBox="0 0 28 28"><defs><clipPath id="master_svg0_6_2952"><rect x="0" y="0" width="28" height="28" rx="0"/></clipPath></defs><g clip-path="url(#master_svg0_6_2952)"><g><path d="M18.812344140625,20.952762890625C17.188244140625,22.112562890625,15.198444140625,22.643562890625,13.212344140625,22.447262890625C13.119644140625,22.438462890625,13.028644140625,22.422762890625,12.934144140625,22.410462890625C12.755644140625,22.385962890625,12.577144140625,22.363262890625,12.403844140625,22.328262890625C12.297044140625,22.306662890625,12.190844140625,22.282062890625,12.085344140625,22.254762890625C11.915244140625,22.217162890625,11.746544140625,22.173362890625,11.579644140625,22.123462890625C11.500844140625,22.098962890625,11.422144140625,22.070962890625,11.341644140625,22.042962890625C11.107244140625,21.964862890625,10.876644140625,21.876062890625,10.650344140625,21.776962890625C10.432884140625,21.682062890625,10.219764140625,21.577562890625,10.011594140625,21.463762890625L9.983594140625,21.449762890625C9.050704140625,20.929962890625,8.223774140625,20.239562890625,7.545844140625,19.414462890625C7.512594140625,19.374262890625,7.481094140625,19.328762890625,7.447844140625,19.286762890625C6.255304140625,17.781462890625,5.607084140625,15.916962890625,5.608594140625,13.996462890625L7.554594140625,13.996462890625C7.606804140625,13.996562890625,7.654704140625,13.967562890625,7.678844140625,13.921262890625C7.703914140625,13.875962890625,7.701204140625,13.820362890625,7.671844140625,13.777762890625L4.404594140625,8.811232890625C4.349584140625,8.724752890625,4.223354140625,8.724752890625,4.168344140625,8.811232890625L0.8993457406250001,13.777762890625C0.871345720625,13.817962890625,0.866095670625,13.873962890625,0.892345640625,13.921262890625C0.918595640625,13.968462890625,0.965845640625,13.996462890625,1.016596140625,13.996462890625L2.962594140625,13.996462890625C2.962594140625,16.348462890625,3.687094140625,18.527262890625,4.915594140625,20.327962890625C4.931344140625,20.354262890625,4.941844140625,20.380462890625,4.957594140625,20.404962890625C5.085344140625,20.588762890625,5.227094140625,20.760262890625,5.363594140625,20.935262890625C5.414344140625,20.999962890625,5.463344140625,21.068262890625,5.515844140625,21.132962890625C5.717094140625,21.381462890625,5.930594140625,21.610762890625,6.151094140625,21.839962890625L6.212344140625,21.902962890625C7.174964140625,22.880662890625,8.313814140625,23.667362890625,9.568844140625,24.221762890625L9.771844140625,24.312762890625C10.004594140625,24.410762890625,10.246094140625,24.496462890625,10.485844140625,24.578762890625C10.599594140625,24.617262890625,10.711594140625,24.657462890625,10.827094140625,24.692462890625C11.038844140625,24.755462890625,11.254144140625,24.807962890625,11.471144140625,24.860462890625C11.616344140625,24.895462890625,11.758144140625,24.932262890625,11.906844140625,24.960262890625C11.966344140625,24.974262890625,12.024144140625,24.991762890625,12.085344140625,25.000462890625C12.290144140625,25.037262890625,12.494844140625,25.058262890625,12.701344140625,25.082762890625L12.921844140625,25.114262890625C15.549844140625,25.382062890625,18.185344140625,24.682762890625,20.334844140625,23.147262890625C20.933944140625,22.718162890625,21.078744140625,21.888262890625,20.660344140625,21.281762890625C20.245144140625,20.673862890625,19.411744140625,20.525562890625,18.812344140625,20.952762890625ZM25.040644140625,13.996462890625C25.042344140625,11.743072890625,24.364844140625,9.541452890625,23.096344140625,7.678982890625C23.077144140625,7.647482890625,23.064844140625,7.615982890625,23.047344140625,7.589732890625C22.893544140625,7.374342890625,22.732444140625,7.164222890625,22.564344140625,6.959732890625L22.506644140625,6.884482890625C21.404244140625,5.524922890625,19.991444140625,4.450022890625,18.387144140625,3.750228890625C18.343044140625,3.730531890625,18.299244140625,3.710111890625,18.255844140625,3.688978890625C18.000344140625,3.584976890625,17.741844140625,3.4886828906250003,17.480644140625,3.400228890625C17.380844140625,3.368728890625,17.288144140625,3.333728890625,17.190144140625,3.305728890625C16.961244140625,3.237068890625,16.730144140625,3.176365890625,16.497144140625,3.123728890625C16.369344140625,3.093978890625,16.239844140625,3.060728890625,16.108644140625,3.034478890625C16.043844140624998,3.022228890625,15.984344140625,3.002978890625,15.919644140625,2.990728890625C15.744644140625,2.959228890625,15.569644140625,2.946978890625,15.394644140625,2.924228590625C15.275644140625,2.908478690625,15.154844140625,2.889228590625,15.034144140625,2.876978690625C14.743144140625,2.851098190625,14.451244140625,2.836503990625,14.159144140625,2.833228650625C14.106644140625,2.833228650625,14.054144140625,2.824478645325,13.999844140625,2.824478645325C11.730644140625,2.820625950625,9.517134140625,3.527445890625,7.670094140625,4.8457328906249995C7.069344140625,5.274302890625,6.923654140625,6.105642890625,7.342844140625,6.712982890625C7.759164140625,7.319312890625,8.591634140625,7.466722890625,9.190844140625,7.040232890625C10.818474140625,5.880812890625,12.810844140625,5.349932890625,14.799644140625,5.5457328906250005L15.021844140625,5.577232890625C15.223144140625,5.599982890625,15.420844140625,5.629732890625,15.615144140625,5.668232890625C15.700844140625,5.683982890625,15.786644140625,5.706732890625,15.870644140625,5.725982890625C16.061344140625,5.769732890625,16.253844140625,5.816982890625,16.439344140625,5.872982890625L16.614344140625,5.934232890625C16.827844140625,6.0042328906249995,17.036144140625,6.079482890625,17.242644140625,6.166982890625L17.307344140625,6.196732890625C18.541144140625,6.7339828906250006,19.624344140625,7.561732890625,20.469644140625,8.597732890625L20.485344140625,8.618732890625001C21.721244140625,10.138872890624999,22.394344140625,12.039082890625,22.391144140625,13.998262890625L20.446844140625,13.998262890625C20.394744140625,13.997662890625,20.346544140625,14.026162890625,20.321944140625,14.072062890625C20.297344140625,14.118062890625,20.300244140625,14.173862890625,20.329644140625,14.216962890625L23.600344140625,19.181762890625C23.655544140625,19.266362890625,23.779644140625,19.266362890625,23.834844140625,19.181762890625L27.102144140625,14.216962890625C27.207244140625,14.215862890625,27.273644140625,14.103562890625,27.223944140625,14.010862890625C27.174344140625,13.918162890625,27.044044140625,13.911262890625,26.984844140625,13.998262890625L25.040644140625,13.998262890625L25.040644140625,13.996462890625Z" fill="#1677FF" fill-opacity="1" style="mix-blend-mode:passthrough"/></g></g></svg>