<svg xmlns="http://www.w3.org/2000/svg" xmlns:xlink="http://www.w3.org/1999/xlink" fill="none" version="1.1" width="101" height="101" viewBox="0 0 101 101"><defs><clipPath id="master_svg0_152_02256"><rect x="0" y="0" width="101" height="101" rx="50.5"/></clipPath></defs><g clip-path="url(#master_svg0_152_02256)"><g><g><path d="M101,50.994053Q101,52.221336,100.939774,53.447147Q100.879547,54.672955,100.759239,55.894329Q100.638916,57.115704,100.458817,58.329704Q100.278717,59.543701,100.039253,60.747406Q99.799789,61.951107,99.501549,63.141617Q99.203308,64.332119,98.847008,65.506561Q98.4907,66.681,98.077187,67.83654Q97.663681,68.992081,97.193962,70.125946Q96.724243,71.259811,96.199455,72.369263Q95.674667,73.478714,95.096062,74.561081Q94.517456,75.643448,93.886429,76.696129Q93.255402,77.74881,92.573471,78.769257Q91.891541,79.789711,91.16037,80.775475Q90.429184,81.761246,89.65052,82.709946Q88.871841,83.658646,88.047546,84.568008Q87.223251,85.477364,86.355331,86.345184Q85.487411,87.213005,84.577942,88.037201Q83.668472,88.861397,82.719658,89.639984Q81.770844,90.418556,80.784958,91.149643Q79.799072,91.880737,78.778503,92.562576Q77.757927,93.244415,76.705124,93.875374Q75.652328,94.506325,74.569832,95.084869Q73.487335,95.663406,72.377747,96.188133Q71.268166,96.712868,70.134163,97.182526Q69.000168,97.652191,67.84449,98.065643Q66.688812,98.479111,65.514236,98.835373Q64.339653,99.191628,63.14901,99.489838Q61.958359,99.78804,60.754513,100.027473Q59.550667,100.266907,58.336521,100.446991Q57.122375,100.627075,55.900856,100.747375Q54.679337,100.867661,53.453384,100.927887Q52.227432,100.988098,51,100.988106Q49.772568,100.988098,48.546616,100.927887Q47.320663,100.867661,46.099144,100.747375Q44.877621,100.627075,43.663471,100.446991Q42.449326,100.266907,41.24548,100.027473Q40.041634,99.78804,38.85099,99.48983Q37.660339,99.191628,36.485764,98.835373Q35.311188,98.479111,34.155506,98.065643Q32.999825,97.652191,31.865826,97.182526Q30.731827,96.712868,29.622242,96.188141Q28.512659,95.663406,27.430164,95.084869Q26.347664,94.506325,25.294861,93.875366Q24.242058,93.244415,23.221487,92.562576Q22.200916,91.880737,21.215034,91.149643Q20.229153,90.418556,19.280336,89.639984Q18.331518,88.861397,17.422052,88.037201Q16.512585,87.213005,15.64466,86.345184Q14.776735,85.477364,13.952443,84.568008Q13.128151,83.658646,12.349478,82.709946Q11.570803,81.761246,10.8396225,80.775475Q10.1084423,79.789711,9.4265184,78.769257Q8.7445946,77.74881,8.1135688,76.696129Q7.482543,75.643448,6.9039364,74.561081Q6.3253293,73.478706,5.8005352,72.369255Q5.2757406,71.259796,4.8060229,70.125938Q4.3363054000000005,68.992081,3.9227965,67.836533Q3.5092874,66.680992,3.152983,65.506554Q2.7966785,64.332115,2.498437,63.141605Q2.2001958,61.951103,1.96073586,60.747402Q1.72127593,59.543701,1.54117441,58.3297Q1.36107293,57.1157,1.2407636499999999,55.894329Q1.12045436,54.672955,1.060227182,53.447144Q1,52.221336,1,50.994053Q1,49.766769,1.060227182,48.540962Q1.12045436,47.315155,1.2407636499999999,46.093781Q1.36107293,44.872402,1.54117441,43.658398Q1.72127593,42.444397,1.96073586,41.240692Q2.2001958,40.036991,2.4984371999999997,38.846489Q2.7966785,37.655983,3.152983,36.481544Q3.5092874,35.307106,3.9227962,34.151562Q4.3363054000000005,32.996019000000004,4.8060229,31.862154Q5.2757406,30.728291,5.8005347,29.618837Q6.3253293,28.509384,6.9039364,27.427017Q7.482543,26.344646,8.1135688,25.291969Q8.7445946,24.239292,9.4265184,23.218843Q10.1084423,22.198395,10.8396225,21.212629Q11.570803,20.226866,12.349477,19.278162Q13.128151,18.329458,13.952443,17.420099Q14.776735,16.51074,15.64466,15.642919Q16.512585,14.775097,17.42205,13.950902Q18.331516,13.126709,19.280334,12.348127Q20.229151,11.569546,21.215033,10.8384533Q22.200914,10.1073589,23.221485,9.4255161Q24.242058,8.743673300000001,25.294861,8.1127229Q26.347664,7.4817724,27.430162,6.903234Q28.512657,6.3246956,29.622242,5.7999635Q30.731827,5.2752318,31.865826,4.805570100000001Q32.999825,4.3359084,34.155506,3.9224486Q35.311188,3.5089889,36.485767,3.1527269Q37.660347,2.7964647,38.85099,2.4982587Q40.041637,2.2000529,41.245483,1.96062154Q42.449333,1.72119009,43.663475,1.54111004Q44.877625,1.36102995,46.099144,1.24073499Q47.320663,1.12044003,48.546616,1.060220014Q49.772568,1,51,1Q52.227432,1,53.453384,1.060220014Q54.679337,1.12044003,55.90086,1.24073499Q57.122375,1.36102995,58.336521,1.54111004Q59.550663,1.72119009,60.754509,1.96062154Q61.958355,2.2000529,63.149002,2.4982588Q64.339653,2.7964647,65.514229,3.1527269Q66.688812,3.5089889,67.844482,3.9224486Q69.000168,4.3359084,70.134163,4.805570100000001Q71.268166,5.2752318,72.377747,5.799964Q73.487335,6.3246956,74.569832,6.9032345Q75.652328,7.4817724,76.705124,8.1127229Q77.757919,8.743673300000001,78.778496,9.4255161Q79.799072,10.1073589,80.784958,10.8384523Q81.770844,11.569546,82.719658,12.348127Q83.668472,13.126709,84.577942,13.950902Q85.487411,14.775097,86.355331,15.642919Q87.223251,16.51074,88.047554,17.420099Q88.871841,18.329458,89.65052,19.278162Q90.429184,20.226866,91.16037,21.212629Q91.891541,22.198395,92.573471,23.218843Q93.255402,24.239292,93.886429,25.291971Q94.517448,26.34465,95.096054,27.427021Q95.67466,28.509388,96.199455,29.618839Q96.724243,30.728292,97.193962,31.862156Q97.663681,32.996021,98.077194,34.151562Q98.4907,35.307106,98.847008,36.481544Q99.203308,37.655983,99.501549,38.846489Q99.799789,40.036995,100.039253,41.240696Q100.278717,42.444401,100.458817,43.658401Q100.638916,44.872406,100.759232,46.093781Q100.879539,47.315155,100.939774,48.540962Q101,49.766769,101,50.994053Z" fill="#D9D9D9" fill-opacity="1" style="mix-blend-mode:passthrough"/></g><g><path d="M50.99973373956299,25.997058868408203C40.64439873956299,25.997056961060604,32.24973573956299,34.3907203684082,32.24973573956299,44.744828868408206C32.24973573956299,55.0989378684082,40.64439873956299,63.492599868408206,50.99973373956299,63.492599868408206C61.35507673956299,63.492599868408206,69.74972973956298,55.0989378684082,69.74972973956298,44.744828868408206C69.74972973956298,34.3907203684082,61.35507673956299,25.997056961060604,50.99973373956299,25.997058868408203ZM50.99973373956299,72.8664818684082C40.374733739562984,72.8664818684082,21.187236339562986,77.14722786840821,15.280987739562988,85.98991786840821C34.88737773956299,106.0033528684082,67.11209573956299,106.0033528684082,86.71848773956299,85.98991786840821C80.812229739563,77.14722786840821,61.62473373956299,72.8664818684082,50.99973373956299,72.8664818684082Z" fill="#8C8C8C" fill-opacity="1" style="mix-blend-mode:passthrough"/></g></g></g></svg>