<svg xmlns="http://www.w3.org/2000/svg" xmlns:xlink="http://www.w3.org/1999/xlink" fill="none" version="1.1" width="28" height="28" viewBox="0 0 28 28"><defs><clipPath id="master_svg0_152_05429"><rect x="0" y="0" width="28" height="28" rx="0"/></clipPath></defs><g clip-path="url(#master_svg0_152_05429)"><g><path d="M19.833984375,17.7919921875C19.355650375,17.7919921875,18.958984375,18.1886591875,18.958984375,18.666993187499997L18.958984375,21.0003281875C18.958984375,21.8053281875,18.305650375,22.4586621875,17.500652375,22.4586621875L8.167317375,22.4586621875C7.3623172750000005,22.4586621875,6.7089838749999995,21.8053281875,6.7089838749999995,21.0003281875L6.7089838749999995,7.0003254875C6.7089838749999995,6.1953253875000005,7.3623172750000005,5.5419919875,8.167317375,5.5419919875L17.500650375,5.5419919875C18.305650375,5.5419919875,18.958984375,6.1953253875000005,18.958984375,7.0003254875L18.958984375,9.3336581875C18.958984375,9.8119911875,19.355650375,10.2086581875,19.833984375,10.2086581875C20.312318375,10.2086581875,20.708984375,9.8119911875,20.708984375,9.3336581875L20.708984375,7.0003254875C20.708984375,5.2269918875000005,19.273985375000002,3.7919921875,17.500652375,3.7919921875L8.167317375,3.7919921875C6.393984475,3.7919921875,4.958984375,5.2269918875000005,4.958984375,7.0003254875L4.958984375,21.0003261875C4.958984375,22.7736601875,6.393984475,24.2086601875,8.167317875,24.2086601875L17.500650375,24.2086601875C19.273985375000002,24.2086601875,20.708984375,22.7736601875,20.708984375,21.0003261875L20.708984375,18.666991187500003C20.708984375,18.1886571875,20.312318375,17.791991187500003,19.833984375,17.7919921875Z" fill="currentColor" fill-opacity="1" style="mix-blend-mode:passthrough"/></g><g><path d="M25.118334,13.382004975000001L22.7849998,11.048671875C22.446665799999998,10.710338898,21.8866663,10.710338898,21.548334099999998,11.048671875C21.2100019,11.387004855,21.21,11.947004875,21.548334099999998,12.285338875L22.3883343,13.125338775L14,13.125338775C13.52166703,13.125338775,13.125,13.522006075,13.125,14.000338775C13.125,14.478671775,13.52166703,14.875339075,14,14.875339075L22.3883343,14.875339075L21.548334099999998,15.715338675C21.21,16.053671875,21.21,16.613671775,21.548334099999998,16.952005875C21.723334299999998,17.127006075,21.9449997,17.208672975,22.1666679,17.208672975C22.388336199999998,17.208672975,22.6100025,17.127006075,22.7850018,16.952005875L25.118337,14.618672875C25.456670000000003,14.280339975,25.456670000000003,13.720339975,25.118334,13.382004975000001Z" fill="currentColor" fill-opacity="1" style="mix-blend-mode:passthrough"/></g></g></svg>