<svg xmlns="http://www.w3.org/2000/svg" xmlns:xlink="http://www.w3.org/1999/xlink" fill="none" version="1.1" width="25.975446701049805" height="25.97463035583496" viewBox="0 0 25.975446701049805 25.97463035583496"><g><path d="M22.177141,3.8026865C19.722973,1.3508974,16.461424,0,12.990348,0C9.5203524,0,6.2583723,1.3508974,3.8052838,3.8031192C1.3513305,6.2559905,2.2829272e-7,9.517972,2.2829272e-7,12.987315C-0.0006491376,16.457312,1.3495991,19.71821,3.8033361,22.172812C6.2559915,24.62352,9.518404,25.97463,12.987967,25.97463C16.459044,25.97463,19.722538,24.622654,22.177145,22.170212C27.241116,17.107111,27.241983,8.8679562,22.177141,3.8026865ZM20.979927,20.973219C18.845247,23.107033,16.007086,24.283251,12.987967,24.283251C9.9710131,24.283251,7.1335011,23.10747,5.0001168,20.975813C2.8669503,18.842649,1.6922477,16.005569,1.6928968,12.987315C1.6928968,9.9694967,2.8680332,7.1322007,5.0018487,4.9996834C7.1356659,2.8669498,9.972311,1.6926802,12.990348,1.6926802C16.008602,1.6926802,18.84568,2.8669498,20.979927,4.9999003C25.384363,9.4041166,25.384363,16.570517,20.979927,20.973219ZM18.603899,16.170074L14.113319,13.573909L14.113319,6.4936576C14.113319,5.8962417,13.628458,5.4113817,13.030608,5.4113817C12.433192,5.4113817,11.948331,5.8960252,11.948331,6.4936576L11.948331,14.06981C11.948331,14.471334,12.447478,14.80792,12.77216,14.994074C12.86199,15.129143,13.108747,15.251656,13.2594,15.33824L17.725092,18.044144C18.242418,18.342636,18.803255,18.165142,19.101963,17.648031C19.400673,17.130272,19.122526,16.469,18.603899,16.170074Z" fill="#1677FF" fill-opacity="1" style="mix-blend-mode:passthrough"/></g></svg>