<svg xmlns="http://www.w3.org/2000/svg" xmlns:xlink="http://www.w3.org/1999/xlink" fill="none" version="1.1" width="28" height="28" viewBox="0 0 28 28"><defs><clipPath id="master_svg0_171_03836"><rect x="0" y="0" width="28" height="28" rx="0"/></clipPath></defs><g clip-path="url(#master_svg0_171_03836)"><g><path d="M26.085709625,24.2947273125L24.732194624999998,21.9486332125C24.562662625,21.6560550125,24.141569625000002,21.6560550125,23.974772625,21.9486332125L23.252897224999998,23.1982427125L14.489225505,23.1982427125C14.248600455,23.1982427125,14.051725465,23.3951173125,14.051725465,23.6357427125L14.051725465,24.5107427125C14.051725465,24.7513676125,14.248600455,24.9482427125,14.489225505,24.9482427125L25.708365625,24.9482427125C26.044693625,24.9509773125,26.255240625,24.5845709125,26.085709625,24.2947273125ZM26.298990625000002,18.9736328425C26.298990625000002,18.7330078325,26.102115625,18.5361328125,25.861490625000002,18.5361328125L14.989616025,18.5361328125L14.989616025,18.5388671877L14.338834855,18.5388671877C14.002506715,18.5388671877,13.791959835,18.9025391025,13.958756711,19.1951172325L15.312272425,21.5412111125C15.481803625,21.8337893125,15.902897325,21.8337893125,16.069694325,21.5412111125L16.794303625,20.2861329125L25.861490625000002,20.2861329125C26.102115625,20.2861329125,26.298990625000002,20.0892579125,26.298990625000002,19.8486329125L26.298990625000002,18.9736328425Z" fill="currentColor" fill-opacity="1" style="mix-blend-mode:passthrough"/></g><g><path d="M21.1748545,14.79287059375C20.2178235,14.09833959375,19.1705575,13.55146459375,18.0549315,13.16044859375C17.8689935,13.09482359375,17.680322500000003,13.03466759375,17.4916505,12.97998059375C17.7869625,12.77216859375,18.0686035,12.53974659375,18.3283695,12.27724559375C19.4850105,11.12060549375,20.1221195,9.58115239375,20.1221195,7.94326159375C20.1221195,6.30537079375,19.4850105,4.76591799375,18.3283695,3.6092773937500002C17.1744635,2.4499023537499998,15.6350095,1.81005859375,13.9998535,1.81005859375C12.3646965,1.81005859375,10.8252439,2.44716793375,9.6686034,3.6065429937499998C8.5119629,4.76318359375,7.8748536,6.30263659375,7.8748536,7.94052739375C7.8748536,9.578417793749999,8.5119629,11.11787129375,9.6686034,12.27451159375C9.9283695,12.53427659375,10.2100096,12.76943259375,10.5053225,12.97724659375C10.0732908,13.10576159375,9.6494632,13.25888659375,9.2311034,13.43388659375C7.7709475,14.05185459375,6.4611816,14.93505859375,5.3373532,16.05888659375C4.213525300000001,17.18271459375,3.3303222999999997,18.49247959375,2.71235347,19.95263659375C2.13266596,21.32802759375,1.812744066,22.77724659375,1.75805656433,24.27294959375C1.7498534396,24.51904259375,1.9494628,24.72412059375,2.19555658,24.72412059375L3.0705565,24.72412059375C3.3057129,24.72412059375,3.4971192,24.54091859375,3.5080565999999997,24.30576159375C3.7295411,18.70849659375,8.3506351,14.22412059375,13.9998535,14.22412059375C16.225634499999998,14.22412059375,18.3338375,14.90224559375,20.1221195,16.19287059375C20.3135265,16.32958959375,20.5787605,16.29404259375,20.7236825,16.10810559375L21.2623535,15.41904259375C21.4182125,15.22216759375,21.3771975,14.93779259375,21.1748545,14.79287059375ZM9.6248536,7.94052739375C9.6248536,5.52607419375,11.5881338,3.56005859375,13.9998535,3.56005859375C16.4115725,3.56005859375,18.3748535,5.52607419375,18.3748535,7.94052739375C18.3748535,10.35498049375,16.4115725,12.32099659375,13.9998535,12.32099659375C11.5881338,12.32099659375,9.6248536,10.35771469375,9.6248536,7.94052739375Z" fill="currentColor" fill-opacity="1" style="mix-blend-mode:passthrough"/></g></g></svg>