<svg xmlns="http://www.w3.org/2000/svg" xmlns:xlink="http://www.w3.org/1999/xlink" fill="none" version="1.1" width="19.98111343383789" height="19.980485916137695" viewBox="0 0 19.98111343383789 19.980485916137695"><g><path d="M17.0593,2.92514C15.1715,1.03915,12.6626,0,9.99258,0C7.32335,0,4.81413,1.03915,2.92714,2.92548C1.03949,4.8123,1.7561e-7,7.32152,1.7561e-7,9.99024C-0.000499337,12.6595,1.03815,15.1679,2.92564,17.056C4.8123,18.9412,7.32185,19.9805,9.99074,19.9805C12.6608,19.9805,15.1712,18.9405,17.0593,17.054C20.9547,13.1593,20.9554,6.82151,17.0593,2.92514ZM16.1384,16.1332C14.4963,17.7746,12.3131,18.6794,9.99074,18.6794C7.67001,18.6794,5.48731,17.775,3.84624,16.1352C2.20535,14.4943,1.30173,12.312,1.30223,9.99024C1.30223,7.66884,2.20618,5.48631,3.84758,3.84591C5.48897,2.20535,7.67101,1.30206,9.99258,1.30206C12.3143,1.30206,14.4967,2.20535,16.1384,3.84608C19.5264,7.23394,19.5264,12.7466,16.1384,16.1332ZM14.3107,12.4385L10.8564,10.4415L10.8564,4.99512C10.8564,4.53557,10.4834,4.1626,10.0235,4.1626C9.56399,4.1626,9.19102,4.5354,9.19102,4.99512L9.19102,10.8229C9.19102,11.1318,9.57498,11.3907,9.82474,11.5339C9.89384,11.6378,10.0837,11.732,10.1995,11.7986L13.6347,13.8801C14.0326,14.1097,14.464,13.9732,14.6938,13.5754C14.9236,13.1771,14.7096,12.6685,14.3107,12.4385Z" fill="#333333" fill-opacity="1" style="mix-blend-mode:passthrough"/></g></svg>