<svg xmlns="http://www.w3.org/2000/svg" xmlns:xlink="http://www.w3.org/1999/xlink" fill="none" version="1.1" width="15.91106128692627" height="15.990385055541992" viewBox="0 0 15.91106128692627 15.990385055541992"><g transform="matrix(1,0,0,-1,0,31.980770111083984)"><path d="M12.7671,24.76202505554199L13.1406,25.10577505554199L12.7671,24.76202505554199L13.1406,25.10577505554199L12.0823,26.168285055541993L10.1523,28.105785055541993L9.09394,29.168285055541993L8.7204,28.82448505554199L8.03557,28.105785055541993L1.84102,21.887015055541994Q1.34297,21.387015055541994,1.12507,20.730765055541994L0.0355753,16.949520055541992Q-0.0889383,16.543270055541992,0.222346,16.230770055541992Q0.53363,15.918269655541993,0.969427,16.01201965554199L4.70484,17.137015055541994Q5.38966,17.324515055541994,5.88772,17.824515055541994L12.0823,24.04327505554199L12.7671,24.76202505554199ZM4.98499,19.512015055541994L4.70484,18.793265055541994L4.98499,19.512015055541994L4.70484,18.793265055541994Q4.51807,18.637015055541994,4.30017,18.574515055541994L1.84102,17.855765055541994L2.55698,20.293265055541994Q2.65036,20.512015055541994,2.77487,20.699515055541994L3.49083,20.980765055541994L3.49083,19.980765055541994Q3.52196,19.543265055541994,3.98888,19.480765055541994L4.98499,19.480765055541994L4.98499,19.512015055541994ZM11.3041,31.38698505554199L10.8371,30.94948505554199L11.3041,31.38698505554199L10.8371,30.94948505554199L10.1523,30.230785055541993L9.77877,29.88698505554199L10.8371,28.82448505554199L12.7671,26.88698505554199L13.8255,25.82452505554199L14.1679,26.168285055541993L14.8838,26.88698505554199L15.3507,27.32448505554199Q15.9111,27.94948505554199,15.9111,28.76198505554199Q15.9111,29.543285055541993,15.3507,30.168285055541993L14.1056,31.38698505554199Q13.5142,31.980785055541993,12.7048,31.980785055541993Q11.9266,31.980785055541993,11.3041,31.38698505554199ZM9.80989,26.13698505554199L5.3274,21.637015055541994L9.80989,26.13698505554199L5.3274,21.637015055541994Q4.98499,21.355765055541994,4.64258,21.637015055541994Q4.3313,22.012015055541994,4.64258,22.355765055541994L9.12507,26.855785055541993Q9.46748,27.13698505554199,9.80989,26.855785055541993Q10.1212,26.51198505554199,9.80989,26.13698505554199Z" fill="#9CA3AF" fill-opacity="1" style="mix-blend-mode:passthrough"/></g></svg>