<svg xmlns="http://www.w3.org/2000/svg" xmlns:xlink="http://www.w3.org/1999/xlink" fill="none" version="1.1" width="24" height="23.999998092651367" viewBox="0 0 24 23.999998092651367"><defs><clipPath id="master_svg0_15_16230"><rect x="0" y="0" width="24" height="23.999998092651367" rx="0"/></clipPath></defs><g clip-path="url(#master_svg0_15_16230)"><g><path d="M19.890740625,5.913330078125C20.139540625,5.913330078125,20.346440625,5.995415178125,20.512740625,6.159701078125C20.677740625,6.326422078125,20.760040625,6.534185078125,20.760040625,6.7828750781250005C20.760040625,7.026810078125,20.676940625,7.232140078125,20.509240625,7.398860078125L10.073800625,17.833430078124998C9.906960625,18.002330078125,9.700590625,18.086930078125,9.455960625,18.086930078125C9.211560625,18.086930078125,9.004950625,18.002330078125,8.837650625,17.833330078125L3.619916625,12.618570078125C3.452616725,12.449410078125,3.369140625,12.244080078125,3.369140625,12.000150078125C3.369140625,11.751340078125,3.451225825,11.543580078125,3.617250625,11.376970078125C3.7824646250000002,11.212690078125,3.989647625,11.130600078125,4.2382216249999995,11.130600078125C4.483200625,11.130600078125,4.689460625,11.212690078125,4.856870625,11.381840078125L9.455960625,15.988030078125L19.272340625,6.164455078125C19.439740625,5.995530978125,19.646240625,5.913330078125,19.890740625,5.913330078125Z" fill="#1677FF" fill-opacity="1"/></g></g></svg>