<svg xmlns="http://www.w3.org/2000/svg" xmlns:xlink="http://www.w3.org/1999/xlink" fill="none" version="1.1" width="20"
    height="20" viewBox="0 0 20 20">
    <defs>
        <clipPath id="master_svg0_77_06510">
            <rect x="0" y="0" width="20" height="20" rx="0" />
        </clipPath>
    </defs>
    <g clip-path="url(#master_svg0_77_06510)">
        <g>
            <path d="M10,10.5L14.5,13.5L17.5,15.5L19.5,10.5L18.5,6L15.5,2.5L10,1L10,6L10,10.5Z" fill="#999999"
                fill-opacity="1" />
        </g>
        <g>
            <path
                d="M17.0593,2.934905625C15.1715,1.048915625,12.6626,0.009765625,9.99258,0.009765625C7.32335,0.009765625,4.81413,1.048915625,2.92714,2.935245625C1.03949,4.822065625,1.7561e-7,7.331285625,1.7561e-7,10.000005625C-0.000499337,12.669265625,1.03815,15.177665625,2.92564,17.065765625C4.8123,18.950965625,7.32185,19.990265625,9.99074,19.990265625C12.6608,19.990265625,15.1712,18.950265625,17.0593,17.063765625C20.9547,13.169065625,20.9554,6.831275625,17.0593,2.934905625ZM16.1384,16.142965625C14.4963,17.784365625,12.3131,18.689165625,9.99074,18.689165625C7.67001,18.689165625,5.48731,17.784765625,3.84624,16.144965625C2.20535,14.504065625,1.30173,12.321765625,1.30223,10.000005625C1.30223,7.678605625,2.20618,5.496075625,3.84758,3.855675625C5.48897,2.215115625,7.67101,1.311825625,9.99258,1.311825625C12.3143,1.311825625,14.4967,2.215115625,16.1384,3.855845625C19.5264,7.243705625,19.5264,12.756365625,16.1384,16.142965625ZM14.3107,12.448265625L10.8564,10.451265625L10.8564,5.004885625C10.8564,4.545335625,10.4834,4.172365625,10.0235,4.172365625C9.56399,4.172365625,9.19102,4.545165625,9.19102,5.004885625L9.19102,10.832665625C9.19102,11.141565625,9.57498,11.400465625,9.82474,11.543665625C9.89384,11.647565625,10.0837,11.741765625,10.1995,11.808365625L13.6347,13.889865625C14.0326,14.119465625,14.464,13.982965625,14.6938,13.585165625C14.9236,13.186865625,14.7096,12.678265625,14.3107,12.448265625Z"
                fill="#888888" fill-opacity="1" style="mix-blend-mode:passthrough" />
        </g>
    </g>
</svg>