<svg xmlns="http://www.w3.org/2000/svg" xmlns:xlink="http://www.w3.org/1999/xlink" fill="none" version="1.1" width="18" height="18" viewBox="0 0 18 18"><defs><clipPath id="master_svg0_15_5045"><rect x="0" y="0" width="18" height="18" rx="0"/></clipPath></defs><g clip-path="url(#master_svg0_15_5045)"><g><path d="M5.624352125,9.935495693359375C5.612646125,9.950415693359375,5.600956125,9.966025693359375,5.595753125,9.984885693359375L4.693625525,13.292285693359375C4.640943725,13.484785693359376,4.694926425,13.692285693359375,4.8374141250000005,13.838585693359375C4.944061125,13.942685693359374,5.084563125,13.999985693359376,5.234153125,13.999985693359376C5.283583125,13.999985693359376,5.332994125,13.994085693359375,5.381774125,13.980985693359376L8.665688124999999,13.085485693359376C8.670918125,13.085485693359376,8.673528125,13.089985693359376,8.677428124999999,13.089985693359376C8.715118125,13.089985693359376,8.752208125,13.076385693359375,8.780188124999999,13.047685693359375L17.561528125000002,4.2677556933593745C17.822228125000002,4.0066556933593755,17.965328125,3.650875693359375,17.965328125,3.263875693359375C17.965328125,2.825155693359375,17.779428125000003,2.386795693359375,17.453428125000002,2.061895693359375L16.624228125000002,1.231312693359375C16.299028125,0.905431693359375,15.859928125,0.719085693359375,15.421628125,0.719085693359375C15.034628125,0.719085693359375,14.678828125,0.862189693359375,14.417318125,1.122661693359375L5.637343125,9.904905693359375C5.628255125,9.913345693359375,5.630857125,9.925695693359375,5.624352125,9.935495693359375ZM16.702228124999998,3.407895693359375L15.830028125,4.279485693359375L14.416038125,2.843015693359375L15.275928125,1.983145693359375C15.411828125,1.846565693359375,15.675228125,1.866445693359375,15.831328125,2.023135693359375L16.661228125,2.853735693359375C16.747828124999998,2.940245693359375,16.797228125,3.055365693359375,16.797228125,3.169165693359375C16.796528125000002,3.262535693359375,16.763328125,3.347085693359375,16.702228124999998,3.407895693359375ZM7.185998124999999,10.073375693359376L13.522328125,3.736685693359375L14.937028125,5.174125693359375L8.612388124999999,11.498385693359374L7.185998124999999,10.073375693359376ZM6.031518125,12.642485693359376L6.489388125,10.961885693359376L7.710898125,12.183285693359375L6.031518125,12.642485693359376Z" fill="#999999" fill-opacity="1" style="mix-blend-mode:passthrough"/></g><g><path d="M17.25785625,6.887294885253906C16.92545625,6.887294885253906,16.65295625,7.157544885253906,16.65165625,7.4944848852539065L16.65165625,15.680244885253906C16.65165625,16.109544885253904,16.30305625,16.458144885253905,15.87305625,16.458144885253905L2.0257562499999997,16.458144885253905C1.59646625,16.458144885253905,1.24653625,16.109544885253904,1.24653625,15.680244885253906L1.24653625,2.3194148852539063C1.24653625,1.8897848852539063,1.59646625,1.5408548852539063,2.0257562499999997,1.5408548852539063L10.94425625,1.5408548852539063C11.27855625,1.5408548852539063,11.54975625,1.269329885253906,11.54975625,0.9349588852539062C11.54975625,0.6013428852539062,11.27855625,0.32944488525390625,10.94425625,0.32944488525390625L1.93338625,0.32944488525390625C0.88686925,0.32944481819870625,0.03515625,1.1805248852539063,0.03515625,2.227684885253906L0.03515625,15.772644885253905C0.03515625,16.819844885253907,0.88686925,17.670544885253907,1.93338625,17.670544885253907L15.96475625,17.670544885253907C17.01195625,17.670544885253907,17.86335625,16.819844885253907,17.86335625,15.772644885253905L17.86335625,7.4905448852539065C17.86195625,7.157544885253906,17.59015625,6.887294885253906,17.25785625,6.887294885253906Z" fill="#999999" fill-opacity="1" style="mix-blend-mode:passthrough"/></g></g></svg>