<svg xmlns="http://www.w3.org/2000/svg" xmlns:xlink="http://www.w3.org/1999/xlink" fill="none" version="1.1" width="18" height="21" viewBox="0 0 18 21"><g><g><ellipse cx="4.253349781036377" cy="10.5" rx="3.753349781036377" ry="10" fill="#FFFFFF" fill-opacity="1" style="mix-blend-mode:passthrough"/><ellipse cx="4.253349781036377" cy="10.5" rx="3.753349781036377" ry="10" fill-opacity="0" stroke-opacity="1" stroke="#333333" fill="none" stroke-width="1"/></g><g><ellipse cx="5.653695106506348" cy="10.499997973442078" rx="3.304567813873291" ry="8.526324272155762" fill="#D3D3D3" fill-opacity="1" style="mix-blend-mode:passthrough"/><ellipse cx="5.653695106506348" cy="10.499997973442078" rx="3.304567813873291" ry="8.526324272155762" fill-opacity="0" stroke-opacity="1" stroke="#333333" fill="none" stroke-width="1"/></g><g><rect x="5.654073715209961" y="1.9736829996109009" width="9.850136756896973" height="17.05268096923828" rx="0" fill="#D3D3D3" fill-opacity="1" style="mix-blend-mode:passthrough"/><path d="M5.654073715209961,1.4736829996109009L5.654073715209961,2.473682999610901L15.00421371520996,2.473682999610901L15.00421371520996,18.526382999610902L5.654073715209961,18.526382999610902L5.654073715209961,19.526382999610902L16.00417371520996,19.526382999610902L16.00417371520996,1.4736829996109009L5.654073715209961,1.4736829996109009Z" fill-rule="evenodd" fill="#333333" fill-opacity="1"/></g><g><ellipse cx="13.788414239883423" cy="10.500014543533325" rx="0.9294512271881104" ry="2.4137094020843506" fill="#F1DD52" fill-opacity="1" style="mix-blend-mode:passthrough"/></g><g><rect x="13.150578498840332" y="0.505210233386606" width="0.4983837306499481" height="19.989065170288086" rx="0" fill="#FFFFFF" fill-opacity="1" style="mix-blend-mode:passthrough"/></g><g><ellipse cx="13.649274826049805" cy="10.5" rx="3.850724220275879" ry="10" fill="#FFFFFF" fill-opacity="1" style="mix-blend-mode:passthrough"/><ellipse cx="13.649274826049805" cy="10.5" rx="3.850724220275879" ry="10" fill-opacity="0" stroke-opacity="1" stroke="#333333" fill="none" stroke-width="1"/></g><g><ellipse cx="13.896841883659363" cy="10.499998331069946" rx="0.8181456327438354" ry="2.1246492862701416" fill-opacity="0" stroke-opacity="1" stroke="#000000" fill="none" stroke-width="1"/></g></g></svg>