<svg xmlns="http://www.w3.org/2000/svg" xmlns:xlink="http://www.w3.org/1999/xlink" fill="none" version="1.1" width="24" height="24" viewBox="0 0 24 24"><defs><clipPath id="master_svg0_155_27226"><rect x="0" y="0" width="24" height="24" rx="0"/></clipPath></defs><g clip-path="url(#master_svg0_155_27226)"><g><g><path d="M12.91829296875,17.210124046875Q12.91829296875,17.300578046875,12.90064296875,17.389288046875Q12.88300296875,17.478008046875,12.84838296875,17.561568046875Q12.81377296875,17.645138046875,12.76352296875,17.720348046875Q12.71326296875,17.795558046875,12.64931296875,17.859518046875Q12.58535296875,17.923478046875,12.51014296875,17.973728046875Q12.434932968750001,18.023978046875,12.35136296875,18.058598046875Q12.26780296875,18.093208046875,12.17908296875,18.110858046875Q12.09037296875,18.128498046875,11.99991896875,18.128498046875Q11.90946596875,18.128498046875,11.82075196875,18.110858046875Q11.73203796875,18.093208046875,11.64847096875,18.058598046875Q11.56490496875,18.023978046875,11.48969596875,17.973728046875Q11.41448796875,17.923478046875,11.35052896875,17.859518046875Q11.28656996875,17.795558046875,11.23631696875,17.720348046875Q11.18606496875,17.645138046875,11.15145016875,17.561568046875Q11.11683566875,17.478008046875,11.09918926875,17.389288046875Q11.08154296875,17.300578046875,11.08154296875,17.210124046875Q11.08154296875,17.119672046875,11.09918926875,17.030958046875Q11.11683566875,16.942244046875,11.15145016875,16.858677046875002Q11.18606496875,16.775110046875,11.23631696875,16.699902046875Q11.28656996875,16.624694046875,11.35052896875,16.560734046875Q11.41448796875,16.496775046875,11.48969596875,16.446522046875Q11.56490496875,16.396270046875,11.64847096875,16.361655246875Q11.73203796875,16.327040746875,11.82075196875,16.309394346875Q11.90946596875,16.291748046875,11.99991896875,16.291748046875Q12.09037296875,16.291748046875,12.17908296875,16.309394346875Q12.26780296875,16.327040746875,12.35136296875,16.361655246875Q12.434932968750001,16.396270046875,12.51014296875,16.446522046875Q12.58535296875,16.496775046875,12.64930296875,16.560734046875Q12.71326296875,16.624694046875,12.76352296875,16.699902046875Q12.81377296875,16.775110046875,12.84838296875,16.858677046875002Q12.88300296875,16.942244046875,12.90064296875,17.030958046875Q12.91829296875,17.119672046875,12.91829296875,17.210124046875Z" fill="#0079D1" fill-opacity="1" style="mix-blend-mode:passthrough"/></g><g><path d="M12.0001409375,20.570878515625C7.2736209375000005,20.570878515625,3.4287109375,16.725978515625002,3.4287109375,11.999408515625C3.4287109375,7.2728885156250005,7.2736209375000005,3.427978515625,12.0001409375,3.427978515625C16.726710937500002,3.427978515625,20.5716109375,7.2728885156250005,20.5716109375,11.999408515625C20.5716109375,16.725978515625002,16.7266109375,20.570878515625,12.0001409375,20.570878515625ZM12.0001409375,4.657968515625C7.9519709375,4.657968515625,4.6587009375,7.951238515625,4.6587009375,11.999408515625C4.6587009375,16.046978515625,7.9519709375,19.340878515625,12.0001409375,19.340878515625C16.0477109375,19.340878515625,19.3416109375,16.046978515625,19.3416109375,11.999408515625C19.3416109375,7.951238515625,16.0477109375,4.657968515625,12.0001409375,4.657968515625Z" fill="#434343" fill-opacity="1" style="mix-blend-mode:passthrough"/></g><g><path d="M11.9997165625,15.093651171875C11.6617465625,15.093651171875,11.3874565625,14.819371171875,11.3874565625,14.481431171875L11.3874565625,13.446121171875C11.3874565625,12.444471171875,12.1527565625,11.679171171875,12.8286765625,11.003881171875001C13.3239665625,10.507961171875,13.836436562500001,9.996121171875,13.836436562500001,9.587741171874999C13.836436562500001,8.567141171875,13.012356562499999,7.736941171875,11.9997165625,7.736941171875C10.9699365625,7.736941171875,10.1629965625,8.531631171875,10.1629965625,9.546111171875C10.1629965625,9.884081171875,9.8887115625,10.158341171875,9.5507375625,10.158341171875C9.2127645625,10.158341171875,8.9384765625,9.884051171875,8.9384765625,9.546111171875C8.9384765625,7.873461171875,10.3117265625,6.512451171875,11.9997165625,6.512451171875C13.6877065625,6.512451171875,15.0609565625,7.891821171875,15.0609565625,9.587741171874999C15.0609565625,10.504281171875,14.366056562499999,11.198561171875,13.6944265625,11.870191171875C13.1617765625,12.401621171875,12.6119765625,12.951411171875,12.6119765625,13.445491171875L12.6119765625,14.480801171875001C12.6119765625,14.818771171875,12.3376865625,15.093651171875,11.9997165625,15.093651171875Z" fill="#0079D1" fill-opacity="1" style="mix-blend-mode:passthrough"/></g></g></g></svg>