<svg xmlns="http://www.w3.org/2000/svg" xmlns:xlink="http://www.w3.org/1999/xlink" fill="none" version="1.1" width="20"
    height="20" viewBox="0 0 20 20">
    <defs>
        <clipPath id="master_svg0_77_06518">
            <rect x="0" y="0" width="20" height="20" rx="0" />
        </clipPath>
    </defs>
    <g clip-path="url(#master_svg0_77_06518)">
        <g>
            <path
                d="M18.06619453125,13.17358243125L10.06811453125,17.11889453125L2.07006453125,13.17358243125C1.70287953125,12.99389453125,1.25951953125,13.14623873125,1.07983243125,13.51342653125C0.90014453125,13.88061353125,1.05248873125,14.32397453125,1.41967653125,14.50366453125L9.74194453125,18.57592453125C9.83178453125,18.61694453125,9.92944453125,18.64037453125,10.02709453125,18.64428453125C10.12670453125,18.64037453125,10.22241453125,18.61694453125,10.31225453125,18.57592453125L18.63449453125,14.50366453125C18.92359453125,14.30248453125,19.02909453125,13.92748853125,18.89229453125,13.60522353125C18.75759453125,13.28295753125,18.40989453125,13.10326996125,18.06619453125,13.17358243125Z"
                fill="#888888" fill-opacity="1" style="mix-blend-mode:passthrough" />
        </g>
        <g>
            <path
                d="M18.06659453125,9.357528375L10.06853453125,13.302839375L2.07048453125,9.357528375C1.83220353125,9.240341175,1.55095353125,9.259872475,1.33220353125,9.408310375C1.11345353125,9.556747375,0.98845343125,9.810653375,1.00603151125,10.074325375C1.02360963125,10.337999375,1.18181253125,10.572369375000001,1.42009353125,10.689559375L9.74236453125,14.761829375C9.83220453125,14.802839375,9.92985453125,14.826279375,10.02751453125,14.830189375C10.12712453125,14.826279375,10.22282453125,14.802839375,10.31267453125,14.761829375L18.63489453125,10.689559375C18.92989453125,10.629009375,19.15639453125,10.396589375,19.21309453125,10.101669375C19.26779453125,9.806747375,19.13889453125,9.507919375,18.88689453125,9.343856375C18.63889453125,9.179794275,18.31269453125,9.185653675,18.06659453125,9.357528375Z"
                fill="#888888" fill-opacity="1" style="mix-blend-mode:passthrough" />
        </g>
        <g>
            <path
                d="M19.13077109375,6.142576875C19.14057109375,5.851566875,18.97847109375,5.580076875,18.71677109375,5.453126875L10.39446109375,1.378906275L10.24602109375,1.378906275L10.06829109375,1.310546875L9.78313109375,1.310546875L1.41985109375,5.453126875C1.15813309375,5.582036875,0.99602327375,5.851566875,1.00578889875,6.142576875C0.99602327375,6.433596875,1.15813309375,6.705076875,1.41985109375,6.832036875L9.74211109375,10.964846875C9.84954109375,10.988286875,9.96087109375,10.988286875,10.06829109375,10.964846875C10.16594109375,10.984376875,10.26751109375,10.984376875,10.36321109375,10.964846875L18.68547109375,6.892576875C18.94717109375,6.763676875,19.10927109375,6.494136875,19.09957109375,6.203126875L19.13077109375,6.142576875ZM10.06829109375,9.445316875L3.34368109375,6.152346875L10.07024109375,2.8691368749999997L16.79677109375,6.162106875L10.06829109375,9.445316875Z"
                fill="#888888" fill-opacity="1" style="mix-blend-mode:passthrough" />
        </g>
        <g>
            <path d="M2.599609375,6L10.099609375,9.5L17.599609375,6L10.099609375,2.5L2.599609375,6Z" fill="#999999"
                fill-opacity="1" />
        </g>
    </g>
</svg>