<svg xmlns="http://www.w3.org/2000/svg" xmlns:xlink="http://www.w3.org/1999/xlink" fill="none" version="1.1" width="21.15890884399414" height="23.88330078125" viewBox="0 0 21.15890884399414 23.88330078125"><g><path d="M20.6158,15.7734C20.2057,15.61,19.4434,15.8809,19.2877,16.2733C17.9336,19.6874,14.6966,21.8934,11.0411,21.8934C6.14811,21.8934,2.16746,17.8899,2.16746,12.9697C2.16746,8.04914,6.14811,4.04608,11.0411,4.04608C12.7029,4.04608,14.3224,4.51034,15.7251,5.38884C15.7513,5.40503,15.7794,5.41599,15.8066,5.42884L13.4791,6.27211C13.0844,6.41496,12.822,7.0835,12.9643,7.48012C13.0763,7.79153,13.541,8.10106,13.852,8.10106C13.9376,8.10106,14.14,8.08626,14.2252,8.05533L18.493,6.1626C18.6921,6.09019,18.8554,5.94118,18.9454,5.74833C19.0354,5.55548,19.0458,5.33408,18.9739,5.1336L17.456,0.897715C17.306,0.47963,16.9346,-0.0826688,16.317,0.0101723C15.8804,0.0758877,15.5709,0.679175,15.7209,1.09724L16.5622,3.44517C14.8676,2.42239,12.9291,1.87812,10.9407,1.87812C4.90779,1.87812,0,6.81352,0,12.8803C0,18.9474,4.90779,23.8833,10.9407,23.8833C15.4475,23.8833,19.4382,21.1635,21.1076,16.9543C21.2714,16.5414,21.0257,15.9381,20.6158,15.7734Z" fill="#1677FF" fill-opacity="1" style="mix-blend-mode:passthrough"/></g></svg>