<svg xmlns="http://www.w3.org/2000/svg" xmlns:xlink="http://www.w3.org/1999/xlink" fill="none" version="1.1" width="12" height="12" viewBox="0 0 12 12"><g transform="matrix(-1,0,0,-1,24,24)"><path d="M22.7631,20.25Q22.7795,20.27838,22.792099999999998,20.30866Q22.8046,20.338929999999998,22.8131,20.37059Q22.8216,20.402250000000002,22.8258,20.434739999999998Q22.8301,20.46723,22.8301,20.5Q22.8301,20.53277,22.8258,20.565260000000002Q22.8216,20.59776,22.8131,20.62941Q22.8046,20.661070000000002,22.792099999999998,20.69134Q22.7795,20.72162,22.7631,20.75Q22.7468,20.77838,22.7268,20.804380000000002Q22.706899999999997,20.830379999999998,22.6837,20.85355Q22.6605,20.876730000000002,22.6345,20.89668Q22.6085,20.916629999999998,22.5801,20.93301Q22.5517,20.9494,22.5215,20.96194Q22.4912,20.97448,22.4595,20.98296Q22.4279,20.99145,22.395400000000002,20.99572Q22.3629,21,22.3301,21L13.66987,21Q13.6371,21,13.604610000000001,20.99572Q13.57212,20.99145,13.54046,20.98296Q13.50881,20.97448,13.47853,20.96194Q13.44825,20.9494,13.41987,20.93301Q13.39149,20.916629999999998,13.36549,20.89668Q13.33949,20.876730000000002,13.31632,20.85355Q13.29315,20.830379999999998,13.2732,20.804380000000002Q13.25325,20.77838,13.23686,20.75Q13.22047,20.72162,13.20793,20.69134Q13.19539,20.661070000000002,13.18691,20.62941Q13.17843,20.59776,13.174150000000001,20.565260000000002Q13.16987,20.53277,13.16987,20.5Q13.16987,20.46723,13.174150000000001,20.434739999999998Q13.17843,20.402250000000002,13.18691,20.37059Q13.19539,20.338929999999998,13.20793,20.30866Q13.22047,20.27838,13.23686,20.25L17.56699,12.75Q17.583370000000002,12.721619,17.60332,12.695619Q17.623269999999998,12.66962,17.64645,12.646447Q17.669620000000002,12.623274,17.695619999999998,12.603323Q17.72162,12.583373,17.75,12.566987Q17.77838,12.550602,17.80866,12.53806Q17.83894,12.525519,17.87059,12.517037Q17.902250000000002,12.508555,17.934739999999998,12.504278Q17.96723,12.5,18,12.5Q18.03277,12.5,18.065260000000002,12.504278Q18.097749999999998,12.508555,18.12941,12.517037Q18.16106,12.525519,18.19134,12.53806Q18.22162,12.550602,18.25,12.566987Q18.27838,12.583373,18.304380000000002,12.603324Q18.330379999999998,12.623274,18.35355,12.646447Q18.376730000000002,12.66962,18.39668,12.695619Q18.416629999999998,12.721619,18.43301,12.75L22.7631,20.25Z" fill="#717171" fill-opacity="1"/></g></svg>